<?xml version="1.0" encoding="UTF-8"?>
<svg width="39px" height="26px" viewBox="0 0 39 26" version="1.1" xmlns="http://www.w3.org/2000/svg" xmlns:xlink="http://www.w3.org/1999/xlink">
    <title>AI</title>
    <g id="页面-1" stroke="none" stroke-width="1" fill="none" fill-rule="evenodd">
        <g id="MP3" transform="translate(-966.000000, -5428.000000)" fill="#FFFFFF" fill-rule="nonzero">
            <g id="AI" transform="translate(966.000000, 5428.000000)">
                <g id="AI-(8)" transform="translate(29.000000, 0.000000)">
                    <path d="M9.7907489,2.25944726 C9.3623348,2.41173153 9.03744493,2.59785674 8.81718062,2.81895093 C8.5969163,3.04004512 8.40969163,3.37168641 8.25770925,3.81387479 C8.21585903,3.93795826 8.12665198,4 7.98788546,4 C7.84911894,4 7.75991189,3.93795826 7.71806167,3.81387479 C7.5660793,3.37168641 7.38325991,3.04004512 7.1685022,2.81895093 C6.95374449,2.59785674 6.6277533,2.41173153 6.18612335,2.25944726 C6.06167401,2.2177101 6,2.1319797 6,2 C6,1.8680203 6.06167401,1.7822899 6.18612335,1.74055274 C6.6277533,1.58826847 6.95594714,1.40214326 7.17070485,1.18104907 C7.38546256,0.959954879 7.56828194,0.628313593 7.72026432,0.186125212 C7.76211454,0.0620417372 7.85132159,0 7.99008811,0 C8.12885463,0 8.21806167,0.0620417372 8.25991189,0.186125212 C8.41189427,0.628313593 8.59801762,0.959954879 8.81938326,1.18104907 C9.0407489,1.40214326 9.36453744,1.58826847 9.79295154,1.74055274 C9.93061674,1.7822899 10,1.8680203 10,2 C10,2.1319797 9.92951542,2.21883813 9.7907489,2.25944726 L9.7907489,2.25944726 Z M6.66282945,6.9576507 C6.29066949,7.09072643 5.96092093,7.2324575 5.67570433,7.38500773 C5.38942745,7.53755796 5.14026053,7.71931994 4.92820357,7.93137558 C4.71508634,8.14343122 4.53271736,8.38902628 4.38003635,8.66707883 C4.22735535,8.94513138 4.0842169,9.27727975 3.95168131,9.66136012 C3.92517419,9.76738794 3.8689791,9.85069552 3.78203575,9.91020093 C3.6950924,9.96970634 3.59966677,10 3.49257801,10 C3.39927295,10 3.31020903,9.96970634 3.22326568,9.91020093 C3.13632233,9.85069552 3.07376553,9.76738794 3.0334747,9.66136012 C2.78112693,8.90618238 2.45455922,8.32952087 2.05589215,7.93137558 C1.65722508,7.53323029 1.07724932,7.20973725 0.319145713,6.9576507 C0.213117237,6.91761978 0.132535595,6.85486862 0.0795213572,6.7683153 C0.0265071191,6.68176198 0,6.59304482 0,6.5 C0,6.40695518 0.0265071191,6.31823802 0.0795213572,6.2316847 C0.132535595,6.14513138 0.212056952,6.08238022 0.319145713,6.0423493 C0.705089367,5.90927357 1.0369585,5.7675425 1.31687367,5.61499227 C1.59572857,5.46244204 1.84171463,5.28068006 2.05483187,5.06862442 C2.26794911,4.85656878 2.45031809,4.60772798 2.60299909,4.32318393 C2.7556801,4.03863988 2.89881854,3.70973725 3.03135414,3.33863988 C3.07164496,3.23261206 3.13420176,3.14930448 3.22114511,3.08979907 C3.30808846,3.03029366 3.39715238,3 3.49045744,3 C3.59648591,3 3.69297183,3.03029366 3.77991518,3.08979907 C3.86685853,3.14930448 3.92305362,3.23261206 3.94956074,3.33863988 C4.08209633,3.70973725 4.22523478,4.03755796 4.37791578,4.32318393 C4.53059679,4.60880989 4.71402605,4.85656878 4.92608301,5.06862442 C5.13920024,5.28068006 5.38836716,5.46352396 5.67358376,5.61499227 C5.95986065,5.7675425 6.28854892,5.91035549 6.66070888,6.0423493 C6.76673735,6.08238022 6.85049985,6.14513138 6.9098758,6.2316847 C6.96925174,6.31823802 7,6.40695518 7,6.5 C7,6.59304482 6.97031203,6.68176198 6.9098758,6.7683153 C6.85156013,6.85486862 6.76885792,6.91761978 6.66282945,6.9576507 Z" id="形状"></path>
                </g>
                <g id="AI-copy-(1)" transform="translate(0.000000, 4.210526)">
                    <path d="M21,21.7894737 L15.9880668,21.7894737 L14.3675418,16.7545629 L6.54892601,16.7545629 L4.96181384,21.7894737 L0,21.7894737 L7.86873508,-0.210526316 L13.2649165,-0.210526316 L21,21.7894737 Z M7,12.7894737 L13,12.7894737 L10.1046512,3.78947368 L9.98255814,3.78947368 L7,12.7894737 L7,12.7894737 Z M23,21.7894737 L23,-0.210526316 L28,-0.210526316 L28,21.7894737 L23,21.7894737 L23,21.7894737 Z" id="形状"></path>
                </g>
            </g>
        </g>
    </g>
</svg>