<?xml version="1.0" encoding="UTF-8"?>
<svg width="24px" height="12px" viewBox="0 0 24 12" version="1.1" xmlns="http://www.w3.org/2000/svg" xmlns:xlink="http://www.w3.org/1999/xlink">
    <title>路径</title>
    <g id="页面-1" stroke="none" stroke-width="1" fill="none" fill-rule="evenodd">
        <g id="落地页-增加两处链接" transform="translate(-276.000000, -1158.000000)" fill="#FFFFFF" fill-rule="nonzero">
            <g id="编组-7" transform="translate(167.000000, 1142.000000)">
                <g id="箭头-(17)" transform="translate(109.000000, 16.000000)">
                    <path d="M23.7071255,6.58933751 C24.0976248,6.20568567 24.0976248,5.58377229 23.7071255,5.20010473 L18.7070826,0.287738882 C18.3165833,-0.0959129607 17.6835699,-0.0959129607 17.2930545,0.287738882 C16.9025552,0.671390725 16.9025552,1.2933041 17.2930545,1.67697166 L20.5860907,4.91226367 L1,4.91226367 C0.447507836,4.91226367 0,5.35192435 0,5.89473684 C0,6.43754934 0.447507836,6.87721001 1,6.87721001 L20.5860907,6.87721001 L17.2930545,10.112502 C17.0980448,10.3040921 17.000044,10.5556053 17.000044,10.8071184 C17.000044,11.0586315 17.0975648,11.3101447 17.2930545,11.5017348 C17.6835539,11.8853866 18.3165673,11.8853866 18.7070826,11.5017348 L23.7071255,6.58933751 Z" id="路径"></path>
                </g>
            </g>
        </g>
    </g>
</svg>