<?xml version="1.0" encoding="UTF-8"?>
<svg width="35px" height="45px" viewBox="0 0 35 45" version="1.1" xmlns="http://www.w3.org/2000/svg" xmlns:xlink="http://www.w3.org/1999/xlink">
    <title>6654004d1010d202ed16622e39743cdc</title>
    <g id="页面-1" stroke="none" stroke-width="1" fill="none" fill-rule="evenodd">
        <g id="落地页-增加两处链接" transform="translate(-374.000000, -1142.000000)" fill-rule="nonzero">
            <g id="编组-7" transform="translate(167.000000, 1142.000000)">
                <g id="6654004d1010d202ed16622e39743cdc" transform="translate(207.000000, 0.000000)">
                    <polygon id="路径" fill="#E8E8E8" points="27.5543359 0 0 0 0 44.6795843 35 44.6795843 35 7.44566407"></polygon>
                    <path d="M8.8382722,24.5172713 L16.1392229,24.5172713 L16.1392229,26.4131341 L8.8382722,26.4131341 L8.8382722,24.5172713 Z M8.8382722,20.8860272 L24.6864474,20.8860272 L24.6864474,22.78189 L8.8382722,22.78189 L8.8382722,20.8860272 Z M8.8382722,17.2546357 L26.1612857,17.2546357 L26.1612857,19.1504985 L8.8382722,19.1504985 L8.8382722,17.2546357 Z M8.8382722,13.6232442 L20.9530787,13.6232442 L20.9530787,15.519107 L8.8382722,15.519107 L8.8382722,13.6232442 Z M8.8382722,9.99200013 L26.1612857,9.99200013 L26.1612857,11.8878629 L8.8382722,11.8878629 L8.8382722,9.99200013 Z" id="形状" fill="#9334EB"></path>
                    <polygon id="形状" fill="#9334EB" points="28.7065902 3.72290572 0 3.72290572 0 0 27.5543359 0"></polygon>
                    <polygon id="路径" fill="#CA92FF" points="11.8404111 40.3592571 9.93010644 40.3592571 9.93010644 34.8508657 8.20371446 34.8508657 8.20371446 33.2887867 13.5620874 33.2887867 13.5620874 34.8508657 11.8404111 34.8508657"></polygon>
                    <polygon id="路径" fill="#CA92FF" points="20.9421736 40.3592571 18.7319793 40.3592571 17.353813 38.1490628 15.9897939 40.3592571 13.8280829 40.3592571 16.1737065 36.7418654 13.9683753 33.2886393 16.0864659 33.2886393 17.3632444 35.4746657 18.5916869 33.2886393 20.7728501 33.2886393 18.5336247 36.8915892 20.9421736 40.3592571"></polygon>
                    <polygon id="路径" fill="#CA92FF" points="24.8547393 40.3592571 22.9444346 40.3592571 22.9444346 34.8508657 21.2178953 34.8508657 21.2178953 33.2887867 26.5762682 33.2887867 26.5762682 34.8508657 24.8545919 34.8508657 24.8545919 40.3592571"></polygon>
                    <polygon id="路径" fill="#CA92FF" points="27.5543359 7.44566407 35 7.44566407 27.5543359 0"></polygon>
                </g>
            </g>
        </g>
    </g>
</svg>