<?xml version="1.0" encoding="UTF-8"?>
<svg width="35px" height="45px" viewBox="0 0 35 45" version="1.1" xmlns="http://www.w3.org/2000/svg" xmlns:xlink="http://www.w3.org/1999/xlink">
    <title>e5a64e58a425800f92eda1974ffc454f</title>
    <g id="页面-1" stroke="none" stroke-width="1" fill="none" fill-rule="evenodd">
        <g id="落地页-增加两处链接" transform="translate(-167.000000, -1142.000000)" fill-rule="nonzero">
            <g id="e5a64e58a425800f92eda1974ffc454f" transform="translate(167.000000, 1142.000000)">
                <polygon id="路径" fill="#E8E8E8" points="27.5543359 0 0 0 0 44.6795843 35 44.6795843 35 7.44566407"></polygon>
                <path d="M10.4161193,40.3592571 L8.97001735,35.2667323 L8.9265444,35.2667323 C8.99418536,36.1341283 9.02807953,36.8080327 9.02807953,37.2882983 L9.02807953,40.3592571 L7.33558172,40.3592571 L7.33558172,33.2887867 L9.87941256,33.2887867 L11.3545456,38.3088074 L11.3931555,38.3088074 L12.8392574,33.2887867 L15.3879514,33.2887867 L15.3879514,40.3592571 L13.6325283,40.3592571 L13.6325283,37.2592672 C13.6325283,37.0980489 13.6348861,36.9191466 13.6397492,36.7224131 C13.6446123,36.5258269 13.6664225,36.0437929 13.7050323,35.2763111 L13.661412,35.2763111 L12.2347624,40.3591097 L10.4161193,40.3591097 L10.4161193,40.3592571 Z M22.0424077,35.5375909 C22.0424077,36.3276197 21.8094222,36.9377147 21.3435984,37.3680233 C20.8776273,37.7984792 20.2159543,38.0136335 19.3582845,38.0136335 L18.8214304,38.0136335 L18.8214304,40.3592571 L16.9111257,40.3592571 L16.9111257,33.2887867 L19.3581371,33.2887867 C20.2511747,33.2887867 20.9216897,33.4838992 21.3699769,33.8739769 C21.8181167,34.2640545 22.0424077,34.8185925 22.0424077,35.5375909 L22.0424077,35.5375909 Z M18.8215777,36.4564176 L19.1696561,36.4564176 C19.4565776,36.4564176 19.6847,36.3759558 19.8538761,36.2145901 C20.0231996,36.0533717 20.107935,35.8308492 20.107935,35.5471697 C20.107935,35.0699988 19.8434132,34.8314134 19.3146642,34.8314134 L18.8214304,34.8314134 L18.8215777,36.4564176 L18.8215777,36.4564176 Z M27.5942721,34.8218346 C27.5942721,35.2603956 27.4604638,35.6367682 27.1928473,35.9510998 C26.9252307,36.2654313 26.5383951,36.4935538 26.0321931,36.6353198 L26.0321931,36.6643509 C27.2122996,36.8127484 27.8022054,37.3705285 27.8022054,38.3376912 C27.8022054,38.9953853 27.5418098,39.5129345 27.021166,39.8901913 C26.5005221,40.2674481 25.7775448,40.4559292 24.8520867,40.4559292 C24.4715878,40.4559292 24.1193833,40.4285191 23.7953256,40.373699 C23.4714152,40.3188788 23.1208316,40.2189647 22.7434275,40.0738093 L22.7434275,38.4875623 C23.0433679,38.6419777 23.3608227,38.7596874 23.6889273,38.8381459 C24.009743,38.9140393 24.3056538,38.951765 24.5765124,38.951765 C24.9956211,38.951765 25.3011107,38.892966 25.4929812,38.7752206 C25.6848516,38.6574752 25.7806395,38.4729731 25.7806395,38.2214194 C25.7806395,38.027928 25.7306824,37.878941 25.6307683,37.7740164 C25.5307069,37.6693866 25.3694885,37.5902511 25.1471133,37.537052 C24.9245907,37.4838529 24.6344272,37.4571797 24.2766227,37.4571797 L23.8414511,37.4571797 L23.8414511,36.0208039 L24.2863489,36.0208039 C25.2569009,36.0208039 25.742177,35.7726396 25.742177,35.2760164 C25.742177,35.0891564 25.6704098,34.950485 25.5268753,34.8601497 C25.3833409,34.7699618 25.190881,34.7247204 24.9489061,34.7247204 C24.4973769,34.7247204 24.0300795,34.87636 23.5464245,35.1793443 L22.753301,33.9025659 C23.1271684,33.6446755 23.5101725,33.4609101 23.9018711,33.3512699 C24.2935698,33.2416296 24.7424464,33.1868095 25.2487958,33.1868095 C25.9806151,33.1868095 26.554458,33.3318176 26.9704721,33.6221285 C27.3863388,33.9127341 27.5942721,34.3123905 27.5942721,34.8218346 L27.5942721,34.8218346 Z" id="形状" fill="#CA92FF"></path>
                <polygon id="路径" fill="#9334EB" points="28.7065902 3.72290572 0 3.72290572 0 0 27.5543359 0"></polygon>
                <polygon id="路径" fill="#CA92FF" points="27.5543359 7.44566407 35 7.44566407 27.5543359 0"></polygon>
                <circle id="椭圆形" fill="#9334EB" cx="17.3098979" cy="17.9997179" r="8.75368415"></circle>
                <path d="M14.4508514,13.4362369 L14.4508514,20.5006653 C14.2031292,20.4713394 13.9275549,20.4779709 13.6360651,20.5294016 C12.5732619,20.7167037 11.711908,21.4088815 11.711908,22.0752703 C11.711908,22.7416591 12.5732619,23.1299683 13.6360651,22.9426662 C14.6987209,22.7553641 15.5600748,22.0631863 15.5600748,21.3967975 L15.5600748,15.6932936 L20.3861619,14.8422553 L20.3861619,19.453925 C20.1385871,19.4245992 19.8631602,19.431378 19.5713756,19.4828087 C18.5084251,19.6701108 17.6472186,20.3622886 17.6472186,21.0286774 C17.6472186,21.6950662 18.5084251,22.0833754 19.5713756,21.8960733 C20.6338841,21.7087712 21.4953853,21.0165934 21.4953853,20.3502046 L21.4953853,12.1942367 L14.4508514,13.4362369 L14.4508514,13.4362369 Z" id="路径" fill="#FFFFFF"></path>
            </g>
        </g>
    </g>
</svg>