<?xml version="1.0" encoding="UTF-8"?>
<svg width="35px" height="45px" viewBox="0 0 35 45" version="1.1" xmlns="http://www.w3.org/2000/svg" xmlns:xlink="http://www.w3.org/1999/xlink">
    <title>67d9e58b17cb20b3ef05a79a8002e41f</title>
    <g id="页面-1" stroke="none" stroke-width="1" fill="none" fill-rule="evenodd">
        <g id="落地页-增加两处链接" transform="translate(-796.000000, -1142.000000)" fill-rule="nonzero">
            <g id="编组-7" transform="translate(589.000000, 1142.000000)">
                <g id="67d9e58b17cb20b3ef05a79a8002e41f" transform="translate(207.000000, 0.000000)">
                    <polygon id="路径" fill="#E8E8E8" points="27.5543359 0 0 0 0 44.6795843 35 44.6795843 35 7.44566407"></polygon>
                    <path d="M29.0562896,22.0953121 C28.5194355,21.138465 26.664393,20.8378385 25.8133547,20.7025566 C25.142545,20.5958636 24.4577354,20.5640326 23.7792627,20.5646221 C23.2465348,20.5610853 22.7216173,20.5873164 22.2034787,20.6167896 C22.0124924,20.6296104 21.8234219,20.6461154 21.6344988,20.6624731 C21.4409815,20.4617888 21.2535933,20.2552834 21.0725925,20.0432414 C19.9201908,18.6790749 18.9897223,17.1320273 18.2315245,15.5244122 C18.4328264,14.7476464 18.5938974,13.9369863 18.6911589,13.0950847 C18.8687348,11.5585001 18.9297443,9.80735061 18.3539856,8.34238581 C18.155189,7.83677328 17.6251137,7.22122575 17.013545,7.5277469 C16.3104621,7.88024623 16.112697,8.8789452 16.0553717,9.58689117 C16.0092462,10.1591131 16.0415193,10.7328087 16.1376019,11.2954519 C16.2354529,11.8619265 16.3929871,12.3998122 16.564521,12.9369611 C16.7251072,13.4308921 16.901447,13.9195616 17.09327,14.4022206 C16.9728532,14.7786726 16.8436269,15.1522497 16.7056976,15.5226438 C16.3885661,16.3542298 16.0456455,17.1442586 15.7158406,17.9042248 L15.2052176,19.0105009 C14.678237,20.1680603 14.1061624,21.3043991 13.464089,22.4028648 C11.966409,22.9311717 10.6224316,23.5436245 9.506282,24.2633598 C8.90753419,24.6501954 8.37863783,25.0703357 7.93816104,25.5311489 C7.52229436,25.9661732 7.09964885,26.5307321 7.06266,27.1557111 C7.0418814,27.5085051 7.18158431,27.8508362 7.47056892,28.0600958 C7.86801485,28.3570382 8.39470072,28.3372912 8.85580874,28.2406191 C10.3663096,27.9237823 11.5262269,26.625341 12.5140208,25.5310016 C13.1944094,24.7772248 13.9688174,23.820083 14.7788879,22.6625236 L14.7843405,22.6545658 C16.1737065,22.2238152 17.6858284,21.860116 19.2906435,21.5927942 C20.0237891,21.4712173 20.7763869,21.3717453 21.5440161,21.3018939 C22.0838175,21.8075064 22.6670919,22.2678776 23.303418,22.6523553 C23.7990097,22.9572555 24.3261377,23.2147038 24.8778757,23.4067216 C25.4358032,23.5890132 25.99712,23.7378528 26.5767103,23.8320197 C26.869379,23.8738716 27.1686793,23.8928818 27.4744636,23.8813873 C28.1569153,23.8555982 29.1364566,23.5938763 29.2007082,22.7658271 C29.2204552,22.5123577 29.1657825,22.2901299 29.0562896,22.0953121 Z M12.7179753,23.6146549 C12.4262037,24.0684935 12.1199173,24.5128348 11.7995907,24.9469904 C11.0882554,25.9148899 10.2758269,27.0644915 9.09955201,27.494358 C8.87614524,27.5759987 8.58200283,27.660292 8.27194489,27.6420187 C7.99578112,27.6258084 7.72344887,27.5039368 7.73597497,27.1903421 C7.74216434,27.0261764 7.82247878,26.8167694 7.9456767,26.6110466 C8.08051654,26.3854293 8.24748215,26.1785275 8.42830015,25.9882781 C8.81572521,25.5812534 9.30556959,25.1867547 9.86909694,24.8214346 C10.7333982,24.2607072 11.7652545,23.7559788 12.9154456,23.3056285 C12.8492783,23.4102584 12.7832584,23.5142987 12.7179753,23.6146549 L12.7179753,23.6146549 Z M16.7295709,11.1976009 C16.6424229,10.6863345 16.6264048,10.1654717 16.6819717,9.64981642 C16.7080073,9.40199488 16.7592613,9.15747656 16.8349375,8.92006029 C16.8980101,8.72406359 17.0341763,8.24571376 17.2513937,8.18426216 C17.6094929,8.08287439 17.7195752,8.8516825 17.7601009,9.06919462 C17.9908759,10.306479 17.7875109,11.6824348 17.5106103,12.8961407 C17.4665479,13.0891901 17.4174751,13.2791448 17.3672233,13.4683626 C17.2813019,13.2332732 17.200331,12.9964038 17.1243642,12.7579114 C16.9622617,12.2384465 16.8140116,11.7129396 16.7295709,11.1976009 L16.7295709,11.1976009 Z M19.1880768,20.9650153 C17.897168,21.1733648 16.6190073,21.454197 15.3596571,21.8061801 C15.5045178,21.7656545 16.1664856,20.5111282 16.3141463,20.2507326 C17.0098609,19.0253848 17.5789881,17.7393223 17.9879286,16.3901871 C18.7100217,17.8183104 19.586407,19.18454 20.6630625,20.4006038 C20.7622398,20.5109809 20.8630381,20.6200317 20.9656048,20.7277562 C20.3622886,20.7927445 19.7685513,20.8718801 19.1880768,20.9650153 Z M28.2870394,22.6883126 C28.2378192,22.9543081 27.6697235,23.1063898 27.4046121,23.1482417 C26.6212148,23.2714396 25.7924288,23.1728518 25.0426309,22.9210034 C24.5281764,22.7482906 24.0319953,22.5130945 23.5605716,22.2301519 C23.0919479,21.9470619 22.6535343,21.6140149 22.2437096,21.246779 C22.7490274,21.2164216 23.2605346,21.1965272 23.774547,21.2062534 C24.2885594,21.2114112 24.8065506,21.2373476 25.3182052,21.3041044 C26.2777048,21.411092 27.3528867,21.7404549 28.1081371,22.363076 C28.2568294,22.4858318 28.3042812,22.5942931 28.2870394,22.6883126 Z M28.7065902,3.72290572 L0,3.72290572 L0,0 L27.5543359,0 L28.7065902,3.72290572 Z" id="形状" fill="#9334EB"></path>
                    <path d="M13.8522509,35.5375909 C13.8522509,36.3276197 13.6194127,36.9377147 13.1534416,37.3680233 C12.6874705,37.7984792 12.0257975,38.0136335 11.1681277,38.0136335 L10.6312736,38.0136335 L10.6312736,40.3592571 L8.72111628,40.3592571 L8.72111628,33.2887867 L11.1682751,33.2887867 C12.0613127,33.2887867 12.731975,33.4838992 13.1801149,33.8739769 C13.6282547,34.2640545 13.8522509,34.8185925 13.8522509,35.5375909 L13.8522509,35.5375909 Z M10.6314209,36.4564176 L10.9796467,36.4564176 C11.2665681,36.4564176 11.4946906,36.3759558 11.6640141,36.2145901 C11.8333375,36.0533717 11.9179256,35.8308492 11.9179256,35.5471697 C11.9179256,35.0699988 11.6535511,34.8314134 11.1248021,34.8314134 L10.6314209,34.8314134 L10.6314209,36.4564176 Z M20.9809308,36.6740771 C20.9809308,37.8540361 20.655989,38.763284 20.0063999,39.4016732 C19.3568108,40.0400625 18.4434367,40.3592571 17.2667197,40.3592571 L14.9791582,40.3592571 L14.9791582,33.2887867 L17.426317,33.2887867 C18.5611821,33.2887867 19.4372726,33.5789502 20.0547359,34.1592773 C20.6720518,34.7396044 20.9809308,35.5779692 20.9809308,36.6740771 L20.9809308,36.6740771 Z M18.9981221,36.7418654 C18.9981221,36.09375 18.8699138,35.6134844 18.6136444,35.3006265 C18.357375,34.987916 17.9680342,34.8315607 17.445622,34.8315607 L16.8896103,34.8315607 L16.8896103,38.7923151 L17.3152031,38.7923151 C17.8956775,38.7923151 18.321123,38.6238758 18.5919816,38.2868499 C18.8626928,37.9501187 18.9981221,37.4350748 18.9981221,36.7418654 L18.9981221,36.7418654 Z M24.1292568,40.3592571 L22.2479832,40.3592571 L22.2479832,33.2887867 L26.4265444,33.2887867 L26.4265444,34.8218346 L24.1292568,34.8218346 L24.1292568,36.1711171 L26.2474948,36.1711171 L26.2474948,37.704165 L24.1292568,37.704165 L24.1292568,40.3592571 Z" id="形状" fill="#CA92FF"></path>
                    <polygon id="路径" fill="#CA92FF" points="27.5543359 7.44566407 35 7.44566407 27.5543359 0"></polygon>
                </g>
            </g>
        </g>
    </g>
</svg>