<?xml version="1.0" encoding="UTF-8"?>
<svg width="35px" height="45px" viewBox="0 0 35 45" version="1.1" xmlns="http://www.w3.org/2000/svg" xmlns:xlink="http://www.w3.org/1999/xlink">
    <title>c2979ac098f158fd60035d507dcaf663</title>
    <g id="页面-1" stroke="none" stroke-width="1" fill="none" fill-rule="evenodd">
        <g id="落地页-增加两处链接" transform="translate(-1195.000000, -1142.000000)" fill-rule="nonzero">
            <g id="编组-7" transform="translate(1035.000000, 1142.000000)">
                <g id="c2979ac098f158fd60035d507dcaf663" transform="translate(160.000000, 0.000000)">
                    <polygon id="路径" fill="#E8E8E8" points="27.5543359 0 0 0 0 44.6795843 35 44.6795843 35 7.44566407"></polygon>
                    <circle id="椭圆形" fill="#FFFFFF" cx="17.3899176" cy="17.9267718" r="6.70279237"></circle>
                    <polygon id="路径" fill="#9334EB" points="28.7065902 3.72290572 0 3.72290572 0 0 27.5543359 0"></polygon>
                    <polygon id="路径" fill="#CA92FF" points="27.5543359 7.44566407 35 7.44566407 27.5543359 0"></polygon>
                    <path d="M10.7902814,11.2239794 C9.55697588,11.2239794 8.55606642,12.2238573 8.55606642,13.4581944 L8.55606642,22.3953491 C8.55606642,23.6286547 9.55697588,24.6295641 10.7902814,24.6295641 L24.1958662,24.6295641 C25.4303506,24.6295641 26.4302285,23.6286547 26.4302285,22.3953491 L26.4302285,13.4581944 C26.4302285,12.2238573 25.4303506,11.2239794 24.1958662,11.2239794 L10.7902814,11.2239794 Z M14.1718876,15.6947672 C13.2446611,15.6947672 12.6983756,16.4119973 12.6983756,17.6531132 L12.6983756,18.4830782 C12.6983756,19.7197731 13.2346403,20.4123931 14.1718876,20.4123931 C14.9427589,20.4123931 15.4432136,19.9263802 15.4968548,19.2393602 L16.7782016,19.2393602 L16.7782016,19.3666844 C16.7145395,20.6480312 15.6297789,21.5317847 14.1618667,21.5317847 C12.359876,21.5317847 11.3489457,20.383362 11.3489457,18.4830782 L11.3489457,17.6485449 C11.3489457,15.74944 12.3698969,14.5753756 14.1618667,14.5753756 C15.6341998,14.5753756 16.7201395,15.4835919 16.7782016,16.8095906 L16.7782016,16.9324938 L15.4968548,16.9324938 C15.4432136,16.2198321 14.9325906,15.6947672 14.1718876,15.6947672 L14.1718876,15.6947672 Z M21.0310353,15.6947672 C20.1027772,15.6947672 19.5575232,16.4119973 19.5575232,17.6531132 L19.5575232,18.4830782 C19.5575232,19.7197731 20.0937879,20.4123931 21.0300037,20.4123931 C21.8007276,20.4123931 22.3023612,19.9263802 22.3560024,19.2393602 L23.6373493,19.2393602 L23.6373493,19.3666844 C23.5736872,20.6480312 22.4889265,21.5317847 21.0210144,21.5317847 C19.2190237,21.5317847 18.2080933,20.383362 18.2080933,18.4830782 L18.2080933,17.6485449 C18.2080933,15.74944 19.2291919,14.5753756 21.0210144,14.5753756 C22.4933475,14.5753756 23.5792871,15.4835919 23.6373493,16.8095906 L23.6373493,16.9324938 L22.3560024,16.9324938 C22.3023612,16.2198321 21.7918856,15.6947672 21.0300037,15.6947672 L21.0310353,15.6947672 L21.0310353,15.6947672 Z" id="形状" fill="#9334EB"></path>
                    <path d="M13.7614735,38.3133758 C13.7614735,38.7519368 13.6503596,39.1411303 13.427837,39.4812508 C13.2053144,39.8215188 12.8844988,40.0857459 12.4653901,40.2743743 C12.0462813,40.4630027 11.5545212,40.5573169 10.9904044,40.5573169 C10.5195702,40.5573169 10.1246295,40.5241596 9.80543486,40.4581397 C9.48624023,40.3921197 9.15422477,40.2768795 8.80924111,40.1124192 L8.80924111,38.4100478 C9.17352971,38.5970552 9.55240754,38.7429475 9.94572723,38.8477247 C10.3390469,38.9525019 10.7002408,39.0049641 11.0290142,39.0049641 C11.3126937,39.0049641 11.520627,38.9558913 11.6529616,38.8574508 C11.7850015,38.7591577 11.8511688,38.6325704 11.8511688,38.4778362 C11.8511688,38.3811641 11.824643,38.2964287 11.7712965,38.2239246 C11.7180974,38.1514206 11.6326251,38.0780324 11.5150271,38.0039073 C11.3972817,37.9297822 11.0838344,37.77829 10.5743903,37.5492834 C10.1132823,37.339729 9.76741444,37.1366588 9.53693411,36.9399252 C9.30645379,36.7433391 9.1355093,36.5175744 9.02424801,36.2627787 C8.91298673,36.0081304 8.85742977,35.7066197 8.85742977,35.358394 C8.85742977,34.7071839 9.0943942,34.1993609 9.56832306,33.8350723 C10.0422519,33.4707836 10.693462,33.2886393 11.5221007,33.2886393 C12.2539199,33.2886393 13.0003284,33.4578154 13.7611788,33.7964624 L13.1759886,35.2714481 C12.5150524,34.9684637 11.9443041,34.8168241 11.4638911,34.8168241 C11.2155795,34.8168241 11.0350563,34.8602971 10.9223213,34.9473904 C10.809439,35.0344836 10.7531452,35.1425029 10.7531452,35.2714481 C10.7531452,35.4101194 10.8247651,35.5343489 10.9682995,35.6438418 C11.1118339,35.753482 11.5010274,35.9534576 12.1363219,36.2436212 C12.7456801,36.5175744 13.1687677,36.8118642 13.4057321,37.1261958 C13.6429913,37.44038 13.7614735,37.8363522 13.7614735,38.3133758 L13.7614735,38.3133758 Z M24.5474813,40.5573169 L22.6371766,40.5573169 L22.6371766,35.0489255 L20.9106373,35.0489255 L20.9106373,33.4868465 L26.2690102,33.4868465 L26.2690102,35.0489255 L24.5473339,35.0489255 L24.5473339,40.5573169 L24.5474813,40.5573169 Z M16.7611072,37.984455 L16.7611072,40.5573169 L14.8508025,40.5573169 L14.8508025,33.4868465 L17.1673951,33.4868465 C19.0890469,33.4868465 20.0498728,34.1831506 20.0498728,35.5760535 C20.0498728,36.3952607 19.6500691,37.0286395 18.8504615,37.4767793 L20.9106373,40.5573169 L18.7439159,40.5573169 L17.2446148,37.984455 L16.7611072,37.984455 Z M16.7611072,36.5482266 L17.119059,36.5482266 C17.786332,36.5482266 18.1201159,36.2531999 18.1201159,35.6631467 C18.1201159,35.1762497 17.7928161,34.9328011 17.1385114,34.9328011 L16.7611072,34.9328011 L16.7611072,36.5482266 Z" id="形状" fill="#CA92FF"></path>
                </g>
            </g>
        </g>
    </g>
</svg>