<?xml version="1.0" encoding="UTF-8"?>
<svg width="35px" height="45px" viewBox="0 0 35 45" version="1.1" xmlns="http://www.w3.org/2000/svg" xmlns:xlink="http://www.w3.org/1999/xlink">
    <title>e934881802e1ff6f75a02531fb1d2d3b</title>
    <g id="页面-1" stroke="none" stroke-width="1" fill="none" fill-rule="evenodd">
        <g id="落地页-增加两处链接" transform="translate(-214.000000, -1142.000000)" fill-rule="nonzero">
            <g id="编组-7" transform="translate(167.000000, 1142.000000)">
                <g id="e934881802e1ff6f75a02531fb1d2d3b" transform="translate(47.000000, 0.000000)">
                    <polygon id="路径" fill="#E8E8E8" points="27.5543359 0 0 0 0 44.6795843 35 44.6795843 35 7.44566407"></polygon>
                    <polygon id="路径" fill="#9334EB" points="8.55606642 9.09306791 26.2237689 9.09306791 26.2237689 26.7607703 8.55606642 26.7607703"></polygon>
                    <circle id="椭圆形" fill="#FFFFFF" cx="17.3899176" cy="17.9267718" r="6.70279237"></circle>
                    <path d="M16.4455967,21.0888027 C15.8347649,21.4840382 15.3348996,21.212148 15.3348996,20.4846024 L15.3348996,15.3693833 C15.3348996,14.6416902 15.8347649,14.3698001 16.4455967,14.7648882 L20.2214068,17.2080681 C20.832386,17.6034509 20.832386,18.2503874 20.2214068,18.6454754 L16.4455967,21.0888027 L16.4455967,21.0888027 Z M28.7065902,3.72290572 L0,3.72290572 L0,0 L27.5543359,0 L28.7065902,3.72290572 Z" id="形状" fill="#9334EB"></path>
                    <path d="M10.4161193,40.3592571 L8.97001735,35.2667323 L8.9265444,35.2667323 C8.99433273,36.1341283 9.02822689,36.8078853 9.02822689,37.2882983 L9.02822689,40.3592571 L7.33558172,40.3592571 L7.33558172,33.2887867 L9.87941256,33.2887867 L11.3543982,38.3088074 L11.3931555,38.3088074 L12.8392574,33.2887867 L15.3879514,33.2887867 L15.3879514,40.3592571 L13.6323809,40.3592571 L13.6323809,37.2592672 C13.6323809,37.0980489 13.6348861,36.9191466 13.6396019,36.7224131 C13.6444649,36.5258269 13.6662751,36.0437929 13.704885,35.2763111 L13.661412,35.2763111 L12.2347624,40.3591097 L10.4161193,40.3591097 L10.4161193,40.3592571 L10.4161193,40.3592571 Z M22.0424077,35.5375909 C22.0424077,36.3276197 21.8094222,36.9377147 21.3435984,37.3680233 C20.8776273,37.7984792 20.2159543,38.0136335 19.3582845,38.0136335 L18.8214304,38.0136335 L18.8214304,40.3592571 L16.9111257,40.3592571 L16.9111257,33.2887867 L19.3581371,33.2887867 C20.2511747,33.2887867 20.9216897,33.4838992 21.3699769,33.8739769 C21.8181167,34.2640545 22.0424077,34.8185925 22.0424077,35.5375909 L22.0424077,35.5375909 Z M18.8215777,36.4564176 L19.1696561,36.4564176 C19.4565776,36.4564176 19.6847,36.3759558 19.8538761,36.2145901 C20.0231996,36.0533717 20.107935,35.8308492 20.107935,35.5471697 C20.107935,35.0699988 19.8434132,34.8314134 19.3146642,34.8314134 L18.8214304,34.8314134 L18.8215777,36.4564176 L18.8215777,36.4564176 Z M28.0584748,38.9905223 L27.2799405,38.9905223 L27.2799405,40.3592571 L25.3938039,40.3592571 L25.3938039,38.9905223 L22.5742514,38.9905223 L22.5742514,37.5880406 L25.514644,33.2886393 L27.2799405,33.2886393 L27.2799405,37.5638726 L28.0584748,37.5638726 L28.0584748,38.9905223 L28.0584748,38.9905223 Z M25.3938039,37.5638726 L25.3938039,36.741718 C25.3938039,36.5869838 25.3994038,36.3781663 25.410751,36.1154128 C25.4219508,35.8526593 25.4307927,35.7148722 25.4372768,35.701904 L25.3842251,35.701904 C25.2782238,35.9433026 25.1537217,36.1761466 25.0118314,36.3983554 L24.228434,37.5638726 L25.3938039,37.5638726 L25.3938039,37.5638726 Z" id="形状" fill="#CA92FF"></path>
                    <polygon id="路径" fill="#CA92FF" points="27.5543359 7.44566407 35 7.44566407 27.5543359 0"></polygon>
                </g>
            </g>
        </g>
    </g>
</svg>