<?xml version="1.0" encoding="UTF-8"?>
<svg width="36px" height="45px" viewBox="0 0 36 45" version="1.1" xmlns="http://www.w3.org/2000/svg" xmlns:xlink="http://www.w3.org/1999/xlink">
    <title>c2814d500dc3e0af0cade58a03abd7ac</title>
    <g id="页面-1" stroke="none" stroke-width="1" fill="none" fill-rule="evenodd">
        <g id="落地页-增加两处链接" transform="translate(-635.000000, -1142.000000)" fill-rule="nonzero">
            <g id="编组-7" transform="translate(589.000000, 1142.000000)">
                <g id="c2814d500dc3e0af0cade58a03abd7ac" transform="translate(46.815783, 0.000000)">
                    <polygon id="路径" fill="#E8E8E8" points="27.5543359 0 0 0 0 44.6795843 35 44.6795843 35 7.44566407"></polygon>
                    <circle id="椭圆形" fill="#9334EB" cx="17.2838142" cy="17.9995705" r="8.72774774"></circle>
                    <path d="M19.8619813,13.2059039 C18.6727381,12.5966931 18.1313157,12.237857 18.1313157,11.5178271 L17.3983175,11.6469196 L17.3983175,19.7465937 C17.0085346,19.7004682 16.5752787,19.7110786 16.1163812,19.7919825 C14.4451041,20.0868617 13.0905164,21.1753065 13.0905164,22.2233731 C13.0905164,23.2711449 14.4451041,23.8821241 16.1163812,23.5875396 C17.7876583,23.2926603 19.142246,22.2040681 19.142246,21.1564437 L19.142246,15.6679466 C19.142246,14.3342849 20.4775288,14.4624933 20.5288121,16.1806327 C20.5802429,17.8989196 19.836487,18.3603224 19.836487,18.3603224 L20.6057372,18.6936641 C22.272888,17.0269553 21.769486,14.1829401 19.8619813,13.2059039 L19.8619813,13.2059039 Z" id="路径" fill="#FFFFFF"></path>
                    <path d="M13.6129286,40.3592571 L11.3545456,40.3592571 L10.6773991,37.2787195 C10.6449786,37.1497743 10.5944321,36.8933576 10.5250227,36.5096167 C10.4556134,36.1258758 10.4050669,35.8053549 10.3727937,35.5473171 C10.3468573,35.7570188 10.3051528,36.0172671 10.2469432,36.3283566 C10.1887337,36.6394461 10.1315557,36.9256307 10.0752619,37.1867632 C10.0188207,37.448043 9.78421416,38.5053936 9.3717369,40.3592571 L7.11305915,40.3592571 L5.36235179,33.2887867 L7.20486813,33.2887867 L7.97397096,36.8338217 C8.1481575,37.6172191 8.26722918,38.2411665 8.33177546,38.7053692 C8.37362739,38.3765958 8.44863665,37.9299296 8.55665589,37.3656654 C8.66467512,36.8015486 8.76547342,36.3341038 8.85905079,35.9631838 L9.48270345,33.2887867 L11.2528631,33.2887867 L11.8573582,35.9631838 C11.9606617,36.3918713 12.0654389,36.8870209 12.1718371,37.4478956 C12.2782353,38.0089177 12.348971,38.4278791 12.3846335,38.7052218 C12.4263381,38.3472699 12.5409888,37.726712 12.7279962,36.8432532 L13.5113935,33.2886393 L15.3539098,33.2886393 L13.6129286,40.3592571 L13.6129286,40.3592571 Z M20.6060319,40.3592571 L20.2579536,39.0341426 L17.9606659,39.0341426 L17.6028614,40.3592571 L15.5039284,40.3592571 L17.8107948,33.2597556 L20.3594887,33.2597556 L22.6953862,40.3592571 L20.6060319,40.3592571 Z M19.8612444,37.4672006 L19.556639,36.3065464 C19.4664179,35.9738485 19.3801537,35.6400902 19.2978645,35.3053422 C19.1963293,34.896107 19.1292778,34.6027014 19.0972994,34.4251255 C19.0682683,34.5895859 19.010943,34.8604445 18.9256181,35.2377013 C18.8401459,35.6151054 18.6506333,36.3582719 18.357375,37.4672006 L19.8612444,37.4672006 L19.8612444,37.4672006 Z M27.4299591,33.2887867 L29.5676494,33.2887867 L27.2510568,40.3592571 L25.0022526,40.3592571 L22.6953862,33.2887867 L24.8426553,33.2887867 L25.8049549,36.8722843 C26.0049304,37.6686498 26.1145707,38.2233352 26.1338756,38.5360457 C26.1564226,38.3104285 26.201664,38.0282227 26.2693049,37.6897231 C26.3370933,37.3512236 26.3966291,37.085228 26.4483546,36.8917366 L27.4299591,33.2887867 L27.4299591,33.2887867 Z" id="形状" fill="#CA92FF"></path>
                    <polygon id="路径" fill="#9334EB" points="28.7065902 3.72290572 0 3.72290572 0 0 27.5543359 0"></polygon>
                    <polygon id="路径" fill="#CA92FF" points="27.5543359 7.44566407 35 7.44566407 27.5543359 0"></polygon>
                </g>
            </g>
        </g>
    </g>
</svg>