<?xml version="1.0" encoding="UTF-8"?>
<svg width="35px" height="45px" viewBox="0 0 35 45" version="1.1" xmlns="http://www.w3.org/2000/svg" xmlns:xlink="http://www.w3.org/1999/xlink">
    <title>07e8646cf2b46511c8a69af50013eb9a</title>
    <g id="页面-1" stroke="none" stroke-width="1" fill="none" fill-rule="evenodd">
        <g id="落地页-增加两处链接" transform="translate(-327.000000, -1142.000000)" fill-rule="nonzero">
            <g id="编组-7" transform="translate(167.000000, 1142.000000)">
                <g id="07e8646cf2b46511c8a69af50013eb9a" transform="translate(160.000000, 0.000000)">
                    <polygon id="路径" fill="#E8E8E8" points="27.5543359 0 0 0 0 44.6795843 35 44.6795843 35 7.44566407"></polygon>
                    <polygon id="路径" fill="#9334EB" points="8.55606642 9.09306791 26.2237689 9.09306791 26.2237689 26.7607703 8.55606642 26.7607703"></polygon>
                    <polygon id="路径" fill="#FFFFFF" points="10.0888196 10.625821 24.6911631 10.625821 24.6911631 25.2278698 10.0888196 25.2278698"></polygon>
                    <path d="M14.3247061,20.8870587 L14.5965963,20.1801443 L15.2357223,18.6030341 L17.5129682,13.3550382 L19.7969929,13.3550382 L19.7969929,18.7390528 C19.7969929,19.4459672 19.7380465,20.1621657 19.6203011,20.8872061 C19.6655425,20.760324 19.9669058,19.9763372 20.5243912,18.5350984 L22.5842723,13.3551856 L25.215049,13.3551856 L20.8984059,23.2936919 L17.7646692,23.2936919 L17.7646692,19.079026 C17.7646692,18.37668 17.793995,17.6423555 17.8530888,16.8764947 C17.703365,17.4792214 17.4360432,18.269987 17.050976,19.248939 L15.3310681,23.2936919 L12.3806546,23.2936919 L12.0476076,13.3551856 L14.5627021,13.3551856 L14.4947664,18.3380701 C14.4675037,19.5479445 14.4107678,20.3976565 14.3247061,20.8870587 L14.3247061,20.8870587 Z M28.7065902,3.72290572 L0,3.72290572 L0,0 L27.5543359,0 L28.7065902,3.72290572 Z" id="形状" fill="#9334EB"></path>
                    <path d="M9.53000792,36.6740771 C9.53000792,37.8540361 9.20506602,38.763284 8.55547696,39.4016732 C7.9058879,40.0400625 6.99266118,40.3592571 5.81579679,40.3592571 L3.52823531,40.3592571 L3.52823531,33.2887867 L5.9753941,33.2887867 C7.1102592,33.2887867 7.9863497,33.5789502 8.60381299,34.1592773 C9.22112891,34.7396044 9.53000792,35.5779692 9.53000792,36.6740771 Z M7.54719921,36.7418654 C7.54719921,36.09375 7.41899084,35.6134844 7.16272147,35.3006265 C6.9064521,34.987916 6.51711129,34.8315607 5.99469904,34.8315607 L5.43868735,34.8315607 L5.43868735,38.7923151 L5.86428018,38.7923151 C6.44460725,38.7923151 6.87020008,38.6238758 7.14091131,38.2868499 C7.41162254,37.9501187 7.54719921,37.4350748 7.54719921,36.7418654 L7.54719921,36.7418654 Z M17.4129067,36.8143694 C17.4129067,38.0040547 17.1211222,38.9084394 16.5377004,39.5275237 C15.9539839,40.1466081 15.0997036,40.4560765 13.9742699,40.4560765 C12.8653412,40.4560765 12.014745,40.144987 11.4232181,39.522808 C10.8313965,38.900629 10.5359278,37.9944759 10.5359278,36.8047907 C10.5359278,35.6280736 10.8300702,34.7294361 11.4183551,34.1087308 C12.0066399,33.4881728 12.8620992,33.1778202 13.9839961,33.1778202 C15.109135,33.1778202 15.9619417,33.4856676 16.5424161,34.1015099 C17.1227432,34.7172048 17.4129067,35.6214422 17.4129067,36.8143694 L17.4129067,36.8143694 Z M12.5477676,36.8143694 C12.5477676,38.1813359 13.0233175,38.8649665 13.9742699,38.8649665 C14.4580723,38.8649665 14.816761,38.6990324 15.0504834,38.3668696 C15.2842057,38.0348541 15.4010669,37.517305 15.4010669,36.8145168 C15.4010669,36.1084866 15.2824373,35.5869585 15.0456203,35.2499326 C14.8088032,34.9130541 14.4546829,34.7446148 13.9841434,34.7446148 C13.0264122,34.7444675 12.5477676,35.4344348 12.5477676,36.8143694 L12.5477676,36.8143694 Z M21.8380111,34.7540462 C21.3833872,34.7540462 21.0286774,34.9403168 20.7738817,35.3127105 C20.5192334,35.6851043 20.3919092,36.1985272 20.3919092,36.8529793 C20.3919092,38.213609 20.909311,38.8938502 21.944262,38.8938502 C22.2569725,38.8938502 22.5601043,38.8503773 22.8535098,38.763284 C23.1536607,38.6736847 23.4490251,38.5687701 23.7384423,38.4489524 L23.7384423,40.0642305 C23.1485364,40.3253629 22.4811161,40.4559292 21.7363287,40.4559292 C20.6691045,40.4559292 19.8509288,40.1464607 19.2819489,39.5273764 C18.712969,38.9082921 18.4284054,38.0136335 18.4284054,36.8432532 C18.4284054,36.1114339 18.5661926,35.4681816 18.8419142,34.9136436 C19.1176359,34.3591055 19.5141977,33.9327759 20.0315995,33.6345072 C20.5491486,33.3363859 21.1576226,33.1871042 21.8573161,33.1871042 C22.6215558,33.1871042 23.3517541,33.3531856 24.0480581,33.6852011 L23.462868,35.1892179 C23.2086142,35.0694334 22.9469456,34.9660654 22.6794707,34.8797494 C22.4183382,34.7960455 22.1379008,34.7540462 21.8380111,34.7540462 L21.8380111,34.7540462 Z" id="形状" fill="#CA92FF"></path>
                    <polygon id="路径" fill="#CA92FF" points="27.5543359 7.44566407 35 7.44566407 27.5543359 0"></polygon>
                    <polygon id="路径" fill="#CA92FF" points="31.9891665 40.4560765 29.7789721 40.4560765 28.4008059 38.2458822 27.0367867 40.4560765 24.8750758 40.4560765 27.2206994 36.8386848 25.0153682 33.3854588 27.1334588 33.3854588 28.4102373 35.5714851 29.6386798 33.3854588 31.819843 33.3854588 29.5806176 36.9884086 31.9891665 40.4560765"></polygon>
                </g>
            </g>
        </g>
    </g>
</svg>