<?xml version="1.0" encoding="UTF-8"?>
<svg width="35px" height="45px" viewBox="0 0 35 45" version="1.1" xmlns="http://www.w3.org/2000/svg" xmlns:xlink="http://www.w3.org/1999/xlink">
    <title>94f048b1a6d01c49609e2c66e941478b</title>
    <g id="页面-1" stroke="none" stroke-width="1" fill="none" fill-rule="evenodd">
        <g id="落地页-增加两处链接" transform="translate(-1035.000000, -1142.000000)" fill-rule="nonzero">
            <g id="94f048b1a6d01c49609e2c66e941478b" transform="translate(1035.000000, 1142.000000)">
                <polygon id="路径" fill="#E8E8E8" points="27.5543359 0 0 0 0 44.6795843 35 44.6795843 35 7.44566407"></polygon>
                <polygon id="路径" fill="#9334EB" points="28.7065902 3.72290572 0 3.72290572 0 0 27.5543359 0"></polygon>
                <polygon id="路径" fill="#CA92FF" points="27.5543359 7.44566407 35 7.44566407 27.5543359 0"></polygon>
                <path d="M17.4930738,10.0848407 C17.4930738,10.0848407 10.4809603,10.0848407 8.72096891,10.5421172 C7.77856373,10.8056075 7.00268206,11.5814892 6.73919176,12.5375994 C6.28191525,14.2974434 6.28191525,17.9423925 6.28191525,17.9423925 C6.28191525,17.9423925 6.28191525,21.6008994 6.73919176,23.333186 C7.00268206,24.2894435 7.76471133,25.0513255 8.72096891,25.3146684 C10.4946654,25.7859447 17.4930738,25.7859447 17.4930738,25.7859447 C17.4930738,25.7859447 24.519187,25.7859447 26.2790311,25.3286681 C27.2352887,25.0654726 27.9973179,24.3171483 28.2468085,23.3470384 C28.7181252,21.6008994 28.7181252,17.9563923 28.7181252,17.9563923 C28.7181252,17.9563923 28.7319371,14.2974434 28.2468085,12.5375994 C27.9973179,11.5814892 27.2352887,10.8193125 26.2790311,10.5699693 C24.519187,10.0848407 17.4930738,10.0848407 17.4930738,10.0848407 L17.4930738,10.0848407 Z M15.2618061,14.5749335 L21.096171,17.9423925 L15.2618061,21.2958519 L15.2618061,14.5749335 L15.2618061,14.5749335 Z" id="形状" fill="#9334EB"></path>
                <path d="M14.0984994,35.9099847 L15.3172157,33.2887867 L17.3871177,33.2887867 L15.0609463,37.5979141 L15.0609463,40.3592571 L13.1360524,40.3592571 L13.1360524,37.6556816 L10.8098811,33.2886393 L12.8893619,33.2886393 L14.0984994,35.9099847 Z M21.5843944,40.3591097 L19.6740897,40.3591097 L19.6740897,34.8507183 L17.9476977,34.8507183 L17.9476977,33.2886393 L23.3060706,33.2886393 L23.3060706,34.8507183 L21.5843944,34.8507183 L21.5843944,40.3591097 L21.5843944,40.3591097 Z" id="形状" fill="#CA92FF"></path>
            </g>
        </g>
    </g>
</svg>