<?xml version="1.0" encoding="UTF-8"?>
<svg width="29px" height="29px" viewBox="0 0 29 29" version="1.1" xmlns="http://www.w3.org/2000/svg" xmlns:xlink="http://www.w3.org/1999/xlink">
    <title>mp3</title>
    <g id="页面-1" stroke="none" stroke-width="1" fill="none" fill-rule="evenodd">
        <g id="MP3" transform="translate(-485.000000, -5429.000000)" fill="#FFFFFF" fill-rule="nonzero">
            <g id="mp3" transform="translate(485.000000, 5429.000000)">
                <path d="M18.6428571,0 C18.9175232,0 19.1809182,0.109216719 19.3751071,0.303464286 L26.3226786,7.25 L27.9642857,7.25 C28.5362949,7.25 29,7.71370508 29,8.28571429 L29,21.75 C29,22.3220092 28.5362949,22.7857143 27.9642857,22.7857143 L26.9285714,22.7857143 L26.9285714,27.9642857 C26.9285714,28.5362949 26.4648663,29 25.8928571,29 L3.10714286,29 C2.53513365,29 2.07142857,28.5362949 2.07142857,27.9642857 L2.07142857,22.7857143 L1.03571429,22.7857143 C0.463705081,22.7857143 0,22.3220092 0,21.75 L0,8.28571429 C0,7.71370508 0.463705081,7.25 1.03571429,7.25 L2.07142857,7.25 L2.07142857,1.03571429 C2.07142857,0.463705081 2.53513365,0 3.10714286,0 L18.6428571,0 Z M24.8571429,22.7857143 L4.14285714,22.7857143 L4.14285714,26.9285714 L24.8571429,26.9285714 L24.8571429,22.7857143 Z M26.9285714,9.32142857 L2.07142857,9.32142857 L2.07142857,20.7142857 L26.9285714,20.7142857 L26.9285714,9.32142857 Z M8.56639286,10.875 L10.875,10.875 L10.875,19.1607143 L8.80357143,19.1607143 L8.80357143,14.1053929 L7.25,16.2814286 L5.69642857,14.1064286 L5.69642857,19.1607143 L3.625,19.1607143 L3.625,10.875 L5.93257143,10.875 L7.25,12.7175357 L8.56639286,10.8739643 L8.56639286,10.875 Z M16.9857143,10.875 C17.6149244,10.875 18.125,11.3850756 18.125,12.0142857 L18.125,15.95 C18.125,16.5792101 17.6149244,17.0892857 16.9857143,17.0892857 L13.9821429,17.0892857 L13.9821429,19.1607143 L11.9107143,19.1607143 L11.9107143,10.875 L16.9857143,10.875 L16.9857143,10.875 Z M24.2357143,10.875 C24.8649244,10.875 25.375,11.3850756 25.375,12.0142857 L25.375,18.0214286 C25.375,18.3235859 25.2549685,18.6133677 25.0413109,18.8270252 C24.8276534,19.0406827 24.5378716,19.1607143 24.2357143,19.1607143 L19.1607143,19.1607143 L19.1607143,17.0892857 L23.3035714,17.0892857 L23.3035714,16.0535714 L20.1964286,16.0535714 L20.1964286,13.9821429 L23.3035714,13.9821429 L23.3035714,12.9464286 L19.1607143,12.9464286 L19.1607143,10.875 L24.2357143,10.875 L24.2357143,10.875 Z M16.0535714,12.9464286 L13.9821429,12.9464286 L13.9821429,15.0178571 L16.0535714,15.0178571 L16.0535714,12.9464286 Z M18.2130357,2.07142857 L4.14285714,2.07142857 L4.14285714,7.25 L23.3916071,7.25 L18.2130357,2.07142857 Z" id="形状"></path>
            </g>
        </g>
    </g>
</svg>