<?xml version="1.0" standalone="no"?>
<!DOCTYPE svg PUBLIC "-//W3C//DTD SVG 1.1//EN" "http://www.w3.org/Graphics/SVG/1.1/DTD/svg11.dtd" >
<svg xmlns="http://www.w3.org/2000/svg">
  <metadata>Created by iconfont</metadata>
  <defs>
  <font id="iconfont" horiz-adv-x="1024">
    <font-face
      font-family="iconfont"
      font-weight="400"
      font-stretch="normal"
      units-per-em="1024"
      ascent="896"
      descent="-128"
    />
      <missing-glyph />
      
      <glyph glyph-name="discord" unicode="&#59238;" d="M492.757205 896l-36.12451-4.328645S294.583967 873.963262 176.293905 778.890477h-1.416647l-1.49535-1.337945c-26.522788-24.397817-38.092076-54.462224-56.351088-98.378295-21.48582-52.730766-39.823534-106.799477-54.855737-161.81262C27.860733 393.326262 0 243.004227 0 105.510722v-11.569288l5.745292-11.569287c42.892937-75.161018 118.840981-123.01222 189.358543-156.067328 70.438859-33.055107 131.3547-50.605795 173.381908-51.94374l27.545923-1.49535 14.402582 24.555223 50.527092 89.642302c53.675198-12.120206 115.456767-20.30528 186.446546-20.30528 70.989778 0 132.771347 8.185074 186.367842 20.30528l50.605795-89.642302 14.481285-24.555223 27.46722 1.416647c42.027208 1.416647 102.943048 18.967335 173.381908 52.022443 70.438859 33.055107 146.465606 80.90631 189.358543 156.067328l5.745292 11.569287v11.569288c0 137.493505-27.860733 287.815541-62.175082 411.850895a1419.244639 1419.244639 0 0 1-54.855738 161.81262c-18.259012 43.994774-29.907002 73.980478-56.351087 98.378295l-1.49535 1.416648h-1.416648C1000.231804 873.963262 838.183076 891.671355 838.183076 891.671355L801.979863 896l-12.985935-33.212512s-13.379448-33.842134-21.643225-72.327723a929.242026 929.242026 0 0 1-119.942817 8.65729c-24.712628 0-67.526862-1.574053-119.942818-8.65729-8.342479 38.564292-21.721928 72.327723-21.721928 72.327723L492.757205 896z m-63.59173-105.461533c2.046269-6.532319 3.935132-12.120206 5.823995-17.393282-59.814004-14.796096-123.563139-37.383752-182.1179-73.665668l49.110445-78.073015c120.02152 74.452694 292.301591 85.234955 345.425871 85.234955 53.124279 0 225.40435-10.782261 345.42587-85.234955l49.110445 78.073015c-58.554761 36.281915-122.303897 58.869572-182.1179 73.665668 1.810161 5.273077 3.777727 10.860964 5.823995 17.31458 43.129045-8.65729 125.530705-28.490354 193.608485-82.322958-0.393513-0.236108 17.31458-26.916302 33.212513-65.008377 16.291446-39.272615 34.314349-91.452463 50.605795-150.322035 31.244947-112.85958 55.878872-250.353086 57.846437-371.397741-29.119975-44.388287-83.109984-84.526631-140.248098-111.285527-35.809699-16.921067-73.665668-29.119975-112.702175-36.045808l-23.138575 38.957805c13.772961 5.115671 27.309815 10.624856 39.036508 15.897933 71.225886 31.244947 109.86888 65.008378 109.86888 65.008377l-60.758435 69.415725s-25.97187-23.925601-86.651603-50.605795c-60.60103-26.758896-153.391438-53.517793-278.922142-53.517792s-218.24241 26.758896-278.922143 53.517792c-60.679733 26.758896-86.651602 50.605795-86.651603 50.605795l-60.758435-69.415725s38.642994-33.763431 109.86888-65.008377c11.726693-5.273077 25.263546-10.860964 39.036508-15.897933l-23.138575-39.036507a450.572592 450.572592 0 0 0-112.780878 36.203212c-57.059411 26.758896-111.04942 66.818538-140.090692 111.206825 1.967566 121.044655 26.522788 258.53816 57.767735 371.397741 13.851664 51.078011 30.694028 101.21159 50.605795 150.322035 15.897933 38.092076 33.606026 64.77227 33.212512 65.008377 68.07778 53.832603 150.47944 73.665668 193.608485 82.322958z m56.351088-315.046652c-35.730997 0-67.369457-20.462685-86.651603-46.27715A151.896088 151.896088 0 0 1 369.90239 336.739067c0-34.865268 9.523019-66.661133 28.883868-92.475598 19.282146-25.893167 50.920606-46.27715 86.651602-46.27715 35.809699 0 67.448159 20.462685 86.730305 46.27715a151.896088 151.896088 0 0 1 28.883868 92.475598 151.896088 151.896088 0 0 1-28.883868 92.475598c-19.282146 25.893167-50.920606 46.27715-86.730305 46.27715z m323.703943 0c-35.730997 0-67.369457-20.462685-86.651603-46.27715a151.896088 151.896088 0 0 1-28.883867-92.475598c0-34.865268 9.523019-66.661133 28.883867-92.475598 19.282146-25.893167 50.920606-46.27715 86.651603-46.27715 35.809699 0 67.448159 20.462685 86.730305 46.27715a151.896088 151.896088 0 0 1 28.883867 92.475598 151.896088 151.896088 0 0 1-28.883867 92.475598c-19.282146 25.893167-50.920606 46.27715-86.730305 46.27715z"  horiz-adv-x="1337" />
      
      <glyph glyph-name="retry" unicode="&#59237;" d="M946.918358 818.84338l-72.907232-72.907233a511.886288 511.886288 0 1 1 116.417567-544.427631c11.188372 29.250645-7.385788 60.475709-37.806459 68.373383-30.420671 7.897674-61.133848-10.676485-73.272866-39.634624A398.247532 398.247532 0 0 0 113.933114 383.959415a398.101279 398.101279 0 0 0 679.638738 281.537458L702.821726 574.746747a28.446252 28.446252 0 0 1 20.036691-48.556071h215.723508c31.444443 0 56.892505 25.448061 56.892504 56.892505v215.723507a28.446252 28.446252 0 0 1-48.556071 20.036692z"  horiz-adv-x="1024" />
      
      <glyph glyph-name="a-svg-01beifen2" unicode="&#59230;" d="M656.511232 825.8048l193.9456-185.1392v-673.0752H171.596032V825.8048h484.864M661.221632 896h-501.248C127.666432 896 101.452032 869.7856 101.452032 837.4784v-881.6128c0-32.3072 26.2144-58.5216 58.5216-58.5216h702.1568c32.3072 0 58.5216 26.2144 58.5216 58.5216V645.6832c0 15.9744-6.5536 31.2832-18.1248 42.3424L701.618432 879.8208A58.5216 58.5216 0 0 1 661.221632 896zM146.610432-64.1024v921.6h504.4224l224.4608-222.0544v-699.5456zM528.613632 619.008h-236.032a35.1232 35.1232 0 0 0 0 70.2464h236.032a35.1232 35.1232 0 1 0 0-70.2464z m356.9152-10.7008h-206.7456a35.1232 35.1232 0 0 0-35.1232 35.1232V850.176a35.1232 35.1232 0 1 0 70.2464 0v-171.6736h171.6224a35.1232 35.1232 0 1 0 0-70.1952zM528.613632 490.2912h-236.032a35.1232 35.1232 0 1 0 0 70.2464h236.032a35.1232 35.1232 0 0 0 0-70.2464zM120.959232 384h567.6032c13.0048 0 19.456-7.5776 19.456-22.6816v-313.0368c0-15.104-6.4512-22.6816-19.456-22.6816H120.908032C107.954432 25.6 101.452032 33.1776 101.452032 48.2816v313.0368C101.452032 376.4224 107.954432 384 120.959232 384zM227.813632 135.3728V191.488h36.2496c35.6352 0 53.4528 15.1552 53.4528 45.2608 0 29.9008-17.8176 44.8512-53.0432 44.8512H203.852032v-146.2272h23.9616z m34.816 76.5952h-34.816v49.152h34.816c10.4448 0 18.2272-1.8432 23.1424-5.7344 4.9152-3.6864 7.5776-9.8304 7.5776-18.6368s-2.4576-15.1552-7.3728-19.0464c-4.9152-3.6864-12.6976-5.7344-23.3472-5.7344z m99.328-76.5952V191.488h36.2496c35.6352 0 53.4528 15.1552 53.4528 45.2608 0 29.9008-17.8176 44.8512-53.0432 44.8512H337.996032v-146.2272h23.9616z m34.816 76.5952h-34.816v49.152h34.816c10.4448 0 18.2272-1.8432 23.1424-5.7344 4.9152-3.6864 7.5776-9.8304 7.5776-18.6368s-2.4576-15.1552-7.3728-19.0464c-4.9152-3.6864-12.6976-5.7344-23.3472-5.7344z m135.9872-76.5952V261.12h47.9232V281.6H460.876032v-20.48h47.9232v-125.7472h23.9616z"  horiz-adv-x="1024" />
      
      <glyph glyph-name="a-svg-01beifen3" unicode="&#59231;" d="M146.610432-64.1024v921.6h504.4224l224.4608-222.0544v-699.5456zM656.511232 825.8048l193.9456-185.1392v-673.0752H171.596032V825.8048h484.864M661.221632 896h-501.248C127.666432 896 101.452032 869.7856 101.452032 837.4784v-881.6128c0-32.3072 26.2144-58.5216 58.5216-58.5216h702.1568c32.3072 0 58.5216 26.2144 58.5216 58.5216V645.6832c0 15.9744-6.5536 31.2832-18.1248 42.3424L701.618432 879.8208A58.5216 58.5216 0 0 1 661.221632 896zM528.613632 619.008h-236.032a35.1232 35.1232 0 0 0 0 70.2464h236.032a35.1232 35.1232 0 1 0 0-70.2464z m356.9152-10.7008h-206.7456a35.1232 35.1232 0 0 0-35.1232 35.1232V850.176a35.1232 35.1232 0 1 0 70.2464 0v-171.6736h171.6224a35.1232 35.1232 0 1 0 0-70.1952zM528.613632 490.2912h-236.032a35.1232 35.1232 0 1 0 0 70.2464h236.032a35.1232 35.1232 0 0 0 0-70.2464zM120.959232 384h567.6032c13.0048 0 19.456-7.5776 19.456-22.6816v-313.0368c0-15.104-6.4512-22.6816-19.456-22.6816H120.908032C107.954432 25.6 101.452032 33.1776 101.452032 48.2816v313.0368C101.452032 376.4224 107.954432 384 120.959232 384zM227.813632 135.3728V191.488h36.2496c35.6352 0 53.4528 15.1552 53.4528 45.2608 0 29.9008-17.8176 44.8512-53.0432 44.8512H203.852032v-146.2272h23.9616z m34.816 76.5952h-34.816v49.152h34.816c10.4448 0 18.2272-1.8432 23.1424-5.7344 4.9152-3.6864 7.5776-9.8304 7.5776-18.6368s-2.4576-15.1552-7.3728-19.0464c-4.9152-3.6864-12.6976-5.7344-23.3472-5.7344z m128.8192-76.5952c23.7568 0 41.5744 6.5536 53.8624 19.6608 11.6736 12.4928 17.6128 30.3104 17.6128 53.4528 0 23.3472-5.9392 41.1648-17.6128 53.4528-12.288 13.1072-30.1056 19.6608-53.8624 19.6608H337.996032v-146.2272h53.4528z m-4.5056 20.48h-24.9856V261.12h24.9856c18.2272 0 31.5392-4.096 39.936-12.4928 8.192-8.192 12.288-21.7088 12.288-40.1408 0-18.0224-4.096-31.3344-12.288-39.936-8.3968-8.3968-21.7088-12.6976-39.936-12.6976z m122.4704-20.48v64.7168h71.4752v20.48H509.413632V261.12h75.776V281.6H485.452032v-146.2272h23.9616z"  horiz-adv-x="1024" />
      
      <glyph glyph-name="a-svg-01beifen4" unicode="&#59232;" d="M146.610432-64.1024v921.6h504.4224l224.4608-222.0544v-699.5456zM656.511232 825.8048l193.9456-185.1392v-673.0752H171.596032V825.8048h484.864M661.221632 896h-501.248C127.666432 896 101.452032 869.7856 101.452032 837.4784v-881.6128c0-32.3072 26.2144-58.5216 58.5216-58.5216h702.1568c32.3072 0 58.5216 26.2144 58.5216 58.5216V645.6832c0 15.9744-6.5536 31.2832-18.1248 42.3424L701.618432 879.8208A58.5216 58.5216 0 0 1 661.221632 896zM528.613632 619.008h-236.032a35.1232 35.1232 0 0 0 0 70.2464h236.032a35.1232 35.1232 0 1 0 0-70.2464z m356.9152-10.7008h-206.7456a35.1232 35.1232 0 0 0-35.1232 35.1232V850.176a35.1232 35.1232 0 1 0 70.2464 0v-171.6736h171.6224a35.1232 35.1232 0 1 0 0-70.1952zM528.613632 490.2912h-236.032a35.1232 35.1232 0 1 0 0 70.2464h236.032a35.1232 35.1232 0 0 0 0-70.2464zM120.959232 384h567.6032c13.0048 0 19.456-7.5776 19.456-22.6816v-313.0368c0-15.104-6.4512-22.6816-19.456-22.6816H120.908032C107.954432 25.6 101.452032 33.1776 101.452032 48.2816v313.0368C101.452032 376.4224 107.954432 384 120.959232 384zM275.736832 135.3728V261.12h47.9232V281.6H203.852032v-20.48h47.9232v-125.7472h23.9616z m81.3056 0l37.6832 56.5248 37.6832-56.5248h29.2864L409.061632 210.944 458.418432 281.6H429.132032l-34.4064-51.6096L360.319232 281.6h-29.2864l48.9472-70.656-52.224-75.5712h29.2864z m180.6336 0V261.12h47.9232V281.6h-119.808v-20.48h47.9232v-125.7472h23.9616z"  horiz-adv-x="1024" />
      
      <glyph glyph-name="svg-01" unicode="&#59233;" d="M146.610432-64.1024v921.6h504.4224l224.4608-222.0544v-699.5456zM656.511232 825.8048l193.9456-185.1392v-673.0752H171.596032V825.8048h484.864M661.221632 896h-501.248C127.666432 896 101.452032 869.7856 101.452032 837.4784v-881.6128c0-32.3072 26.2144-58.5216 58.5216-58.5216h702.1568c32.3072 0 58.5216 26.2144 58.5216 58.5216V645.6832c0 15.9744-6.5536 31.2832-18.1248 42.3424L701.618432 879.8208A58.5216 58.5216 0 0 1 661.221632 896zM528.613632 619.008h-236.032a35.1232 35.1232 0 0 0 0 70.2464h236.032a35.1232 35.1232 0 1 0 0-70.2464z m356.9152-10.7008h-206.7456a35.1232 35.1232 0 0 0-35.1232 35.1232V850.176a35.1232 35.1232 0 1 0 70.2464 0v-171.6736h171.6224a35.1232 35.1232 0 1 0 0-70.1952zM528.613632 490.2912h-236.032a35.1232 35.1232 0 1 0 0 70.2464h236.032a35.1232 35.1232 0 0 0 0-70.2464zM120.959232 404.992h567.6032c13.0048 0 19.456-7.5776 19.456-22.7328v-312.9856c0-15.1552-6.4512-22.6816-19.456-22.6816H120.908032c-13.0048 0-19.5072 7.5264-19.5072 22.6816v312.9856c0 15.1552 6.5024 22.7328 19.5072 22.7328zM234.367232 169.7792v15.36H170.623232v33.1776h57.4464v15.36H170.623232v30.4128h61.1328v15.36H152.652032v-109.6704h81.7152z m28.8768 0l28.2624 42.3936 28.2624-42.3936h21.9648l-39.4752 56.6784 37.0176 52.992h-21.9648l-25.8048-38.7072-25.8048 38.7072h-21.9648l36.7104-52.992-39.168-56.6784h21.9648z m137.9328-2.1504a47.1552 47.1552 0 0 1 30.4128 10.1376 48.384 48.384 0 0 1 17.2032 30.1056h-17.5104a33.9456 33.9456 0 0 0-11.0592-18.7392 31.3344 31.3344 0 0 0-19.2-5.6832c-11.9808 0-20.8896 3.84-26.5728 11.2128-5.2224 6.912-7.8336 16.896-7.8336 29.7984 0 12.5952 2.6112 22.4256 7.9872 29.4912 5.8368 7.9872 14.4384 11.8272 25.9584 11.8272 7.68 0 13.9776-1.536 18.8928-4.9152a25.6 25.6 0 0 0 10.2912-15.8208h17.5104a40.448 40.448 0 0 1-14.4384 26.4192C424.524032 278.2208 413.772032 281.6 400.869632 281.6c-17.5104 0-30.8736-5.6832-40.0896-17.3568-8.1408-10.1376-12.1344-23.5008-12.1344-39.7824 0-16.5888 3.84-29.7984 11.6736-39.6288 8.9088-11.3664 22.5792-17.2032 40.8576-17.2032z m146.2272 2.1504v15.36H483.660032v33.1776h57.4464v15.36H483.660032v30.4128h61.1328v15.36H465.688832v-109.6704H547.404032z m94.0032 0v15.36H582.117632v94.3104H564.300032v-109.6704h77.1072z"  horiz-adv-x="1024" />
      
      <glyph glyph-name="a-svg-01beifen6" unicode="&#59234;" d="M152.652032-76.8V844.8h504.4224l224.4608-222.0032V-76.8zM656.511232 825.8048l193.9456-185.1392v-673.0752H171.596032V825.8048h484.864M661.221632 896h-501.248C127.666432 896 101.452032 869.7856 101.452032 837.4784v-881.6128c0-32.3072 26.2144-58.5216 58.5216-58.5216h702.1568c32.3072 0 58.5216 26.2144 58.5216 58.5216V645.6832c0 15.9744-6.5536 31.2832-18.1248 42.3424L701.618432 879.8208A58.5216 58.5216 0 0 1 661.221632 896zM528.613632 619.008h-236.032a35.1232 35.1232 0 0 0 0 70.2464h236.032a35.1232 35.1232 0 1 0 0-70.2464z m356.9152-10.7008h-206.7456a35.1232 35.1232 0 0 0-35.1232 35.1232V850.176a35.1232 35.1232 0 1 0 70.2464 0v-171.6736h171.6224a35.1232 35.1232 0 1 0 0-70.1952zM528.613632 490.2912h-236.032a35.1232 35.1232 0 1 0 0 70.2464h236.032a35.1232 35.1232 0 0 0 0-70.2464zM120.959232 384h567.6032c13.0048 0 19.456-7.5776 19.456-22.6816v-313.0368c0-15.104-6.4512-22.6816-19.456-22.6816H120.908032C107.954432 25.6 101.452032 33.1776 101.452032 48.2816v313.0368C101.452032 376.4224 107.954432 384 120.959232 384zM256.588032 91.2896l56.1664 87.6544a8.448 8.448 0 0 0 13.4144 1.4336l37.12-38.656 81.5616 135.5776A8.6016 8.6016 0 0 0 452.428032 281.6a8.704 8.704 0 0 0 7.3728-4.6592l101.2736-186.2656a9.728 9.728 0 0 0 0-9.216 8.6528 8.6528 0 0 0-7.5264-4.6592H263.756032a8.704 8.704 0 0 0-7.7312 4.9152 9.728 9.728 0 0 0 0.512 9.5744zM255.052032 283.0336a51.2 51.2 0 1 1 102.4-2.8672 51.2 51.2 0 0 1-102.4 2.8672z"  horiz-adv-x="1024" />
      
      <glyph glyph-name="a-svg-01beifen5" unicode="&#59235;" d="M152.652032-76.8V844.8h504.4224l224.4608-222.0032V-76.8zM656.511232 825.8048l193.9456-185.1392v-673.0752H171.596032V825.8048h484.864M661.221632 896h-501.248C127.666432 896 101.452032 869.7856 101.452032 837.4784v-881.6128c0-32.3072 26.2144-58.5216 58.5216-58.5216h702.1568c32.3072 0 58.5216 26.2144 58.5216 58.5216V645.6832c0 15.9744-6.5536 31.2832-18.1248 42.3424L701.618432 879.8208A58.5216 58.5216 0 0 1 661.221632 896zM528.613632 619.008h-236.032a35.1232 35.1232 0 0 0 0 70.2464h236.032a35.1232 35.1232 0 1 0 0-70.2464z m356.9152-10.7008h-206.7456a35.1232 35.1232 0 0 0-35.1232 35.1232V850.176a35.1232 35.1232 0 1 0 70.2464 0v-171.6736h171.6224a35.1232 35.1232 0 1 0 0-70.1952zM528.613632 490.2912h-236.032a35.1232 35.1232 0 1 0 0 70.2464h236.032a35.1232 35.1232 0 0 0 0-70.2464zM120.959232 384h567.6032c13.0048 0 19.456-7.5776 19.456-22.6816v-313.0368c0-15.104-6.4512-22.6816-19.456-22.6816H120.908032C107.954432 25.6 101.452032 33.1776 101.452032 48.2816v313.0368C101.452032 376.4224 107.954432 384 120.959232 384zM322.636032 168.96v2.8672a29.7984 29.7984 0 0 0 11.264 23.552c9.8304 8.6016 15.7696 14.1312 17.6128 16.1792a40.96 40.96 0 0 1 7.5776 25.1904c0 12.4928-4.096 22.3232-12.288 29.4912-8.192 7.3728-19.0464 10.8544-32.3584 10.8544-15.1552 0-27.0336-4.3008-35.84-12.9024-9.0112-8.6016-13.312-20.48-13.312-35.6352h23.3472c0 8.8064 1.6384 15.5648 5.12 20.2752 4.096 5.5296 10.4448 8.192 19.2512 8.192 6.9632 0 12.4928-1.8432 16.384-5.7344 3.6864-3.8912 5.7344-9.216 5.7344-15.9744 0-5.12-1.8432-10.0352-5.5296-14.5408l-2.4576-2.8672c-13.312-11.8784-21.2992-20.48-23.9616-26.0096a43.3664 43.3664 0 0 1-4.096-20.0704v-2.8672h23.552z m-11.8784-40.96c4.5056 0 8.192 1.4336 11.4688 4.3008a15.616 15.616 0 0 1 4.5056 11.264 15.104 15.104 0 0 1-4.5056 11.0592 16.2816 16.2816 0 0 1-11.4688 4.3008 14.9504 14.9504 0 0 1-11.0592-4.3008 13.824 13.824 0 0 1-4.7104-11.0592c0-4.5056 1.4336-8.192 4.7104-11.0592a15.104 15.104 0 0 1 11.0592-4.5056z m126.1568 40.96v2.8672a29.7984 29.7984 0 0 0 11.264 23.552c9.8304 8.6016 15.7696 14.1312 17.6128 16.1792a40.96 40.96 0 0 1 7.5776 25.1904c0 12.4928-4.096 22.3232-12.288 29.4912-8.192 7.3728-19.0464 10.8544-32.3584 10.8544-15.1552 0-27.0336-4.3008-35.84-12.9024-9.0112-8.6016-13.312-20.48-13.312-35.6352h23.3472c0 8.8064 1.6384 15.5648 5.12 20.2752 4.096 5.5296 10.4448 8.192 19.2512 8.192 6.9632 0 12.4928-1.8432 16.384-5.7344 3.6864-3.8912 5.7344-9.216 5.7344-15.9744 0-5.12-1.8432-10.0352-5.5296-14.5408l-2.4576-2.8672c-13.312-11.8784-21.2992-20.48-23.9616-26.0096a43.3664 43.3664 0 0 1-4.096-20.0704v-2.8672h23.552z m-11.8784-40.96c4.5056 0 8.192 1.4336 11.4688 4.3008a15.616 15.616 0 0 1 4.5056 11.264 15.104 15.104 0 0 1-4.5056 11.0592 16.2816 16.2816 0 0 1-11.4688 4.3008 14.9504 14.9504 0 0 1-11.0592-4.3008 13.824 13.824 0 0 1-4.7104-11.0592c0-4.5056 1.4336-8.192 4.7104-11.0592A15.104 15.104 0 0 1 425.036032 128z m126.1568 40.96v2.8672a29.7984 29.7984 0 0 0 11.264 23.552c9.8304 8.6016 15.7696 14.1312 17.6128 16.1792a40.96 40.96 0 0 1 7.5776 25.1904c0 12.4928-4.096 22.3232-12.288 29.4912-8.192 7.3728-19.0464 10.8544-32.3584 10.8544-15.1552 0-27.0336-4.3008-35.84-12.9024-9.0112-8.6016-13.312-20.48-13.312-35.6352h23.3472c0 8.8064 1.6384 15.5648 5.12 20.2752 4.096 5.5296 10.4448 8.192 19.2512 8.192 6.9632 0 12.4928-1.8432 16.384-5.7344 3.6864-3.8912 5.7344-9.216 5.7344-15.9744 0-5.12-1.8432-10.0352-5.5296-14.5408l-2.4576-2.8672c-13.312-11.8784-21.2992-20.48-23.9616-26.0096a43.3664 43.3664 0 0 1-4.096-20.0704v-2.8672h23.552z m-11.8784-40.96c4.5056 0 8.192 1.4336 11.4688 4.3008a15.616 15.616 0 0 1 4.5056 11.264 15.104 15.104 0 0 1-4.5056 11.0592 16.2816 16.2816 0 0 1-11.4688 4.3008 14.9504 14.9504 0 0 1-11.0592-4.3008 13.824 13.824 0 0 1-4.7104-11.0592c0-4.5056 1.4336-8.192 4.7104-11.0592a15.104 15.104 0 0 1 11.0592-4.5056z"  horiz-adv-x="1024" />
      
      <glyph glyph-name="svg-01beifen" unicode="&#59236;" d="M146.610432-64.1024v921.6h504.4224l224.4608-222.0544v-699.5456zM656.511232 825.8048l193.9456-185.1392v-673.0752H171.596032V825.8048h484.864M661.221632 896h-501.248C127.666432 896 101.452032 869.7856 101.452032 837.4784v-881.6128c0-32.3072 26.2144-58.5216 58.5216-58.5216h702.1568c32.3072 0 58.5216 26.2144 58.5216 58.5216V645.6832c0 15.9744-6.5536 31.2832-18.1248 42.3424L701.618432 879.8208A58.5216 58.5216 0 0 1 661.221632 896zM528.613632 619.008h-236.032a35.1232 35.1232 0 0 0 0 70.2464h236.032a35.1232 35.1232 0 1 0 0-70.2464z m356.9152-10.7008h-206.7456a35.1232 35.1232 0 0 0-35.1232 35.1232V850.176a35.1232 35.1232 0 1 0 70.2464 0v-171.6736h171.6224a35.1232 35.1232 0 1 0 0-70.1952zM528.613632 490.2912h-236.032a35.1232 35.1232 0 1 0 0 70.2464h236.032a35.1232 35.1232 0 0 0 0-70.2464zM120.959232 404.992h567.6032c13.0048 0 19.456-7.5776 19.456-22.7328v-312.9856c0-15.1552-6.4512-22.6816-19.456-22.6816H120.908032c-13.0048 0-19.5072 7.5264-19.5072 22.6816v312.9856c0 15.1552 6.5024 22.7328 19.5072 22.7328zM203.340032 169.7792l21.504 82.4832h0.6144l21.3504-82.4832h19.0464l31.6416 109.6704h-20.2752l-20.5824-83.4048h-0.6144l-21.6576 83.4048h-18.5856l-21.6576-83.4048h-0.6144l-20.5824 83.4048H152.652032l31.488-109.6704h19.2z m154.368-2.1504c16.7424 0 29.952 5.376 39.6288 16.128 9.216 10.2912 13.824 23.808 13.824 40.704s-4.608 30.5664-13.824 40.8576C387.660032 276.224 374.450432 281.6 357.708032 281.6c-16.896 0-30.1056-5.376-39.6288-16.4352-9.216-10.4448-13.6704-23.9616-13.6704-40.704 0-16.5888 4.4544-30.1056 13.6704-40.5504 9.5232-10.752 22.7328-16.2816 39.6288-16.2816z m0 15.8208c-11.3664 0-20.2752 3.84-26.4192 11.3664-5.9904 7.3728-8.9088 17.2032-8.9088 29.6448 0 12.5952 2.9184 22.4256 8.9088 29.7984 6.2976 7.68 15.0528 11.52 26.4192 11.52 11.3664 0 20.1216-3.5328 26.2656-10.9056 5.9904-7.3728 9.0624-17.5104 9.0624-30.4128 0-12.9024-3.072-22.8864-9.0624-30.1056-6.144-7.2192-14.8992-10.9056-26.2656-10.9056z m88.32-13.6704v44.6976h28.416c6.144 0 10.9056-1.2288 14.1312-3.9936 3.072-2.6112 4.9152-6.912 5.5296-12.9024l1.3824-13.5168c0.6144-6.144 2.1504-10.9056 4.7616-14.2848h19.5072a26.624 26.624 0 0 0-6.6048 16.128l-1.8432 17.664c-1.2288 10.752-6.6048 17.0496-16.128 19.2v0.3072a23.8592 23.8592 0 0 1 13.9776 9.6768 26.112 26.112 0 0 1 4.608 15.2064c0 10.4448-3.5328 18.432-10.2912 23.9616-6.4512 5.0688-15.36 7.5264-26.5728 7.5264h-48.8448v-109.6704h17.9712z m28.416 60.0576H446.028032v34.2528h28.416c7.3728 0 12.7488-1.2288 16.128-3.9936 3.3792-2.6112 5.0688-6.912 5.0688-12.9024a16.5376 16.5376 0 0 0-5.0688-12.9024 25.5488 25.5488 0 0 0-16.128-4.4544z m100.7616-60.0576c17.8176 0 31.1808 4.9152 40.3968 14.7456 8.7552 9.3696 13.2096 22.7328 13.2096 40.0896 0 17.5104-4.4544 30.8736-13.2096 40.0896-9.216 9.8304-22.5792 14.7456-40.3968 14.7456H535.116032v-109.6704h40.0896z m-3.3792 15.36h-18.7392v78.9504h18.7392c13.6704 0 23.6544-3.072 29.952-9.3696 6.144-6.144 9.216-16.2816 9.216-30.1056 0-13.5168-3.072-23.5008-9.216-29.952-6.2976-6.2976-16.2816-9.5232-29.952-9.5232z"  horiz-adv-x="1024" />
      
      <glyph glyph-name="meiyouyinpin" unicode="&#59229;" d="M601.435119 867.744542L624.813559 843.932203l-23.37844 23.812339zM574.186305 895.965288h-1.388474l1.388474-1.388474v1.388474zM572.277153 896l1.527322-130.51661v-26.085966c0-8.955661 2.256271-16.418712 5.276203-23.864407 9.077153-21.625492 31.761356-36.551593 58.211797-36.551593l37.054915 0.746305h140.617763l-2.273628 1.49261 3.019933-1.49261v-262.196068a300.361763 300.361763 0 0 1-26.728136 1.180203c-162.486237 0-294.200407-130.568678-294.200407-291.66644a288.976271 288.976271 0 0 1 67.254238-185.604339H73.328814C38.547525-58.576271 0-31.726644 0 1.093424V836.347661C0 869.150373 38.547525 896 73.328814 896h498.948339zM789.694915 375.322034C650.70861 375.322034 538.033898 262.664678 538.033898 123.661017 538.033898-15.27322 650.70861-128 789.694915-128 928.646508-128 1041.355932-15.290576 1041.355932 123.661017 1041.338576 262.682034 928.646508 375.322034 789.694915 375.322034z m123.365966-276.09817h-249.751864c-13.259932 0-23.951186 10.378847-23.951186 23.118102-0.104136 12.721898 10.725966 23.08339 23.916474 23.08339h249.682441c13.277288 0 24.02061-10.361492 23.951186-23.152814 0.104136-12.739254-10.639186-23.048678-23.847051-23.048678zM567.018305 537.04461a120.797288 120.797288 0 0 0-70.812203-22.736271c-23.100746 0-55.434847 15.394712-62.359865 28.619932V300.691525c1.544678-40.369898-29.262102-80.010847-76.973559-93.947661-55.434847-16.141017-112.397017 8.070508-127.791729 55.053017-14.613695 46.236203 18.484068 96.880814 73.901559 113.021831 23.08339 6.595254 46.947797 6.595254 66.976543 0 5.380339-1.457898 10.760678 2.204203 10.760678 7.341559V628.059119c0 6.595254 3.089356 13.207864 7.706034 17.616271A27.56122 27.56122 0 0 0 406.909831 653.016949c10.760678 0 20.01139-5.866305 23.84705-14.683118v0.728949-0.728949c0-0.728949 0-0.728949 0.781017-1.457899 15.394712-44.049356 59.270508-75.602441 110.071322-75.60244 4.616678 0 9.233356 0 13.850034 0.728949 16.175729 1.475254 23.08339-16.887322 11.559051-24.957831zM574.255729 744.986034c0-7.879593 1.527322-15.741831 5.328271-22.180881 9.875525-20.757695 32.646508-35.076339 58.472136-35.076339l37.193762 0.711593 138.968949 1.440542H815.728814l-183.747255 156.029831-26.589288 22.892474L573.509424 895.288407 572.745763 896l0.763661-125.240407 0.763661-25.773559z"  horiz-adv-x="1041" />
      
      <glyph glyph-name="wenjuan" unicode="&#59226;" d="M336.657067-7.031467H154.5216a30.1056 30.1056 0 0 0-30.1056 30.037334V775.645867c0 16.5888 13.5168 30.1056 30.037333 30.1056h602.112c16.5888 0 30.037333-13.5168 30.037334-30.037334v-181.794133a45.124267 45.124267 0 1 1 90.3168 0V775.5776C876.919467 842.069333 822.9888 896 756.565333 896h-602.112C88.1664 896 34.0992 842.001067 34.0992 775.5776v-752.503467c0-66.423467 53.998933-120.4224 120.4224-120.4224h182.135467a45.124267 45.124267 0 1 1 0 90.3168zM711.3728 644.642133a45.124267 45.124267 0 0 1-45.124267 45.192534H268.936533a45.124267 45.124267 0 1 1 0-90.3168h397.312a45.124267 45.124267 0 0 1 45.124267 45.124266zM624.128 462.506667a45.124267 45.124267 0 0 1-45.192533 45.192533H268.936533a45.124267 45.124267 0 1 1 0-90.3168h310.0672a45.124267 45.124267 0 0 1 45.192534 45.124267zM268.868267 325.563733a45.124267 45.124267 0 1 1 0-90.3168H482.6112a45.124267 45.124267 0 1 1 0 90.3168H268.936533z m690.107733 60.074667l-38.365867 38.2976a105.540267 105.540267 0 0 1-149.026133 0l-276.821333-276.6848a44.919467 44.919467 0 0 1-12.765867-25.668267l-43.690667-162.747733a45.192533 45.192533 0 0 1 55.296-55.296l162.816 43.6224a45.056 45.056 0 0 1 25.736534 12.765867l276.821333 276.6848c19.8656 19.933867 30.856533 46.421333 30.856533 74.5472 0 28.125867-10.922667 54.613333-30.856533 74.478933z m-63.829333-85.128533L627.336533 32.836267l-81.5104-21.845334 21.845334 81.442134 267.810133 267.605333a15.086933 15.086933 0 0 0 21.2992 0l38.365867-38.229333a15.018667 15.018667 0 0 0 0-21.2992z"  horiz-adv-x="1024" />
      
      <glyph glyph-name="icon_ku" unicode="&#59227;" d="M952.311876 601.278214A481.953028 481.953028 0 0 1 697.887098 858.228809a476.969661 476.969661 0 0 1-372.045892 0A477.174457 477.174457 0 0 1 174.087441 754.806877 483.727925 483.727925 0 0 1 34.143573 413.34384a483.591395 483.591395 0 0 1 291.834163-444.816704A472.122824 472.122824 0 0 1 512.000683-69.360106a472.395885 472.395885 0 0 1 337.776711 141.309174 475.604355 475.604355 0 0 1 102.397952 153.392132 488.506497 488.506497 0 0 1 0.068265 375.937014z m-251.557635-2.32102c37.136324 0 67.309587-30.582855 67.309587-68.265301 0-37.545916-30.173263-68.128771-67.309587-68.128771a67.99224 67.99224 0 0 0-67.582648 68.060506c0 37.750712 30.378059 68.265301 67.582648 68.265301z m-377.438851 1.297041c37.272855 0 67.582648-30.65112 67.582648-68.265301 0-37.545916-30.309794-68.128771-67.582648-68.128771a67.582648 67.582648 0 0 0-67.377853 68.265301c0 37.545916 30.173263 68.128771 67.377853 68.128771z m-62.32622-409.455278a308.832223 308.832223 0 0 0 107.859176 91.407239 316.204876 316.204876 0 0 0 286.236408 0 308.14957 308.14957 0 0 0 107.790911-91.407239 34.200916 34.200916 0 0 0-6.894795-47.64918 34.405712 34.405712 0 0 0-47.376119 7.167857A244.594575 244.594575 0 0 1 511.932417 248.14181c-77.958974 0-151.548969-36.521936-196.808863-97.960707a34.337447 34.337447 0 0 0-47.307854-6.963061 34.405712 34.405712 0 0 0-6.82653 47.580915z"  horiz-adv-x="1024" />
      
      <glyph glyph-name="icon_xiao" unicode="&#59228;" d="M952.311876 601.278214A481.953028 481.953028 0 0 1 697.887098 858.228809a476.969661 476.969661 0 0 1-372.045892 0A477.174457 477.174457 0 0 1 174.087441 754.806877 483.727925 483.727925 0 0 1 34.143573 413.34384a483.591395 483.591395 0 0 1 291.834163-444.816704A472.122824 472.122824 0 0 1 512.000683-69.360106a472.395885 472.395885 0 0 1 337.776711 141.309174 475.604355 475.604355 0 0 1 102.397952 153.392132 488.506497 488.506497 0 0 1 0.068265 375.937014z m-251.557635-2.32102c37.136324 0 67.309587-30.582855 67.309587-68.265301 0-37.545916-30.173263-68.128771-67.309587-68.128771a67.99224 67.99224 0 0 0-67.582648 68.060506c0 37.750712 30.378059 68.265301 67.582648 68.265301z m-377.438851 1.297041c37.272855 0 67.582648-30.65112 67.582648-68.265301 0-37.545916-30.309794-68.128771-67.582648-68.128771a67.582648 67.582648 0 0 0-67.377853 68.265301c0 37.545916 30.173263 68.128771 67.377853 68.128771z m439.62854-337.913242a308.832223 308.832223 0 0 0-107.859176-91.338973 316.204876 316.204876 0 0 0-286.236408 0 308.14957 308.14957 0 0 0-107.790911 91.338973 34.200916 34.200916 0 0 0 6.894795 47.649181 34.405712 34.405712 0 0 0 47.376119-7.099592A244.594575 244.594575 0 0 1 512.000683 205.066405c77.958974 0 151.548969 36.453671 196.808863 97.892442a34.337447 34.337447 0 0 0 47.307854 7.031327 34.405712 34.405712 0 0 0 6.82653-47.580916z"  horiz-adv-x="1024" />
      
      <glyph glyph-name="a-fenxiangxin" unicode="&#59225;" d="M831.764845 255.978341a191.767282 191.767282 0 0 1-131.012951-52.419802L503.793809 319.876399a244.918183 244.918183 0 0 1 8.261419 63.971167 255.738449 255.738449 0 0 1-10.820266 70.331729l198.858943 110.542177a191.767282 191.767282 0 1 1-60.169452 138.762601c-0.657989-8.04209-0.657989-16.230399 0-24.272489l-203.245538-114.490112a255.738449 255.738449 0 1 1 6.360562-354.802371l196.884976-120.192685c-0.657989-8.480749-0.657989-17.034608 0-25.588467a191.767282 191.767282 0 1 1 191.767282 191.840392z m0 511.403789a63.898057 63.898057 0 1 0 0-127.869225 63.898057 63.898057 0 0 0 0 127.942335z m-575.374956-511.403789a127.869225 127.869225 0 1 0 0 255.73845 127.869225 127.869225 0 0 0 0-255.73845z m575.374956-255.738449a63.898057 63.898057 0 1 0 0 127.869225 63.898057 63.898057 0 0 0 0-127.869225z"  horiz-adv-x="1024" />
      
      <glyph glyph-name="whatsapp" unicode="&#59224;" d="M742.287593 283.618996c-12.433 6.363-74.453999 36.788-86.009999 40.884-11.555 4.388-20.04 6.363-28.377-6.437-8.411-12.652-32.4-40.884-39.933-49.44-7.314-8.485-14.774-9.509-27.206999-3.219-74.088999 37.008-122.651999 66.043999-171.434999 149.859999-12.945 22.233 12.872 20.624 37.008 68.748999 4.095 8.484 2.047 15.651-1.17 22.087-3.146 6.363-28.305 68.309999-38.764 93.615999-10.239 24.502-20.77 21.064-28.376999 21.576-7.314 0.439-15.651 0.439-24.135 0.439a46.589 46.589 0 0 1-33.644-15.652c-11.482-12.726-44.029-43.15-44.029-105.170999 0-61.874999 45.126-121.919999 51.27-130.331999 6.436-8.484 88.788999-135.523999 215.316998-190.303998 80.012999-34.52 111.315999-37.446 151.321998-31.522 24.282 3.657 74.453999 30.352 84.84 59.973 10.458 29.474 10.458 54.779999 7.313 59.972999-3.072 5.631-11.482 8.776-23.989 14.92z m241.939997 298.766997A512.109995 512.109995 0 0 1 512.049595 895.99999h-2.267A510.792995 510.792995 0 0 1 0.0136 381.622995a513.645995 513.645995 0 0 1 54.926999-228.408998v-173.701998c0-29.035 23.55-52.585999 52.586-52.586h173.774998c70.430999-35.545 149.199999-54.486999 228.481998-54.852999h2.413c68.456999 0 134.792999 13.238 197.324998 39.202a507.939995 507.939995 0 0 1 163.169998 108.755999 510.865995 510.865995 0 0 1 151.321999 361.664996 510.134995 510.134995 0 0 1-39.787 200.762998zM811.621592 81.904998a422.881996 422.881996 0 0 0-299.571997-122.943999H510.074595a426.611996 426.611996 0 0 0-197.763998 49.733l-9.581 5.12H141.827599V174.716997l-5.12 9.508A426.684996 426.684996 0 0 0 86.974599 382.061995 422.515996 422.515996 0 0 0 209.844598 683.534992 421.930996 421.930996 0 0 0 510.221595 809.111991h1.975a423.027996 423.027996 0 0 0 300.741997-124.406999 423.027996 423.027996 0 0 0 124.479999-302.642997 423.466996 423.466996 0 0 0-125.795999-300.156997z"  horiz-adv-x="1024" />
      
      <glyph glyph-name="icon_quanbuwenjian" unicode="&#59223;" d="M890.88 896H329.728C256 896 196.608 836.608 196.608 762.88v-43.008h-60.416c-73.728 0-133.12-59.392-133.12-133.12V5.12c0-73.728 59.392-133.12 133.12-133.12h561.152c73.728 0 133.12 59.392 133.12 133.12v43.008h60.416c73.728 0 133.12 59.392 133.12 133.12V762.88C1024 836.608 964.608 896 890.88 896zM728.064 6.144c0-16.384-14.336-30.72-30.72-30.72H136.192c-16.384 0-30.72 14.336-30.72 30.72V586.752c0 16.384 14.336 30.72 30.72 30.72h561.152c16.384 0 30.72-14.336 30.72-30.72v-580.608zM921.6 181.248c0-16.384-14.336-30.72-30.72-30.72h-60.416V586.752c0 73.728-59.392 133.12-133.12 133.12h-399.36V762.88c0 16.384 14.336 30.72 30.72 30.72H890.88c16.384 0 30.72-14.336 30.72-30.72v-581.632zM590.848 331.776h-348.16c-27.648 0-51.2 22.528-51.2 51.2s22.528 51.2 51.2 51.2h348.16c28.672 0 51.2-22.528 51.2-51.2 0-27.648-23.552-51.2-51.2-51.2z m0-174.08h-348.16c-27.648 0-51.2 22.528-51.2 51.2s22.528 51.2 51.2 51.2h348.16c28.672 0 51.2-22.528 51.2-51.2 0-27.648-23.552-51.2-51.2-51.2z"  horiz-adv-x="1024" />
      
      <glyph glyph-name="a-icon_duihao-mian3" unicode="&#59222;" d="M512.465 895.884C230.61 895.884 1.21 666.508 1.21 384.628s229.376-511.278 511.255-511.278 511.279 229.376 511.279 511.278C1023.721 666.508 794.344 895.884 512.465 895.884z m286.092-413.23L466.013 141.776a42.52 42.52 0 0 0-30.254-12.753h-0.233a42.59 42.59 0 0 0-30.115 12.428L226.7 320.279a42.566 42.566 0 0 0 0 60.253 42.566 42.566 0 0 0 60.253 0l148.363-148.247L737.63 542.348a42.682 42.682 0 0 0 60.253 0.698 42.822 42.822 0 0 0 0.675-60.393z m0 0"  horiz-adv-x="1024" />
      
      <glyph glyph-name="a-wenjian7" unicode="&#59221;" d="M265.31 733.09l39.563-39.563C339.782 658.618 386.327 640 437.527 640H930.91v-93.09H93.091V733.09h172.218m0 93.092H93.091C41.89 826.182 0 784.29 0 733.09v-186.182c0-51.2 41.89-93.09 93.09-93.09h837.82c51.2 0 93.09 41.89 93.09 93.09V640c0 51.2-41.89 93.09-93.09 93.09H435.2c-25.6 0-48.873 9.31-65.164 27.928l-39.563 39.564c-16.291 16.29-39.564 25.6-65.164 25.6zM930.91 453.818V34.91H93.09V453.82h837.82m93.09 93.09H0v-512c0-51.2 41.89-93.09 93.09-93.09h837.82c51.2 0 93.09 41.89 93.09 93.09v512z"  horiz-adv-x="1024" />
      
      <glyph glyph-name="a-wenhao3" unicode="&#59220;" d="M860.794 735.268C767.627 828.435 643.756 879.744 512 879.744s-255.629-51.31-348.795-144.476S18.73 518.231 18.73 386.473c0-131.757 51.31-255.627 144.476-348.796 93.169-93.165 217.04-144.474 348.794-144.474s255.627 51.31 348.795 144.476c93.165 93.167 144.475 217.039 144.475 348.794 0.001 131.758-51.31 255.629-144.476 348.795z m-304.807-650.58H448.295v99.116h107.692v-99.116z m123.321 346.895c-16.32-24.727-38.404-46.39-65.625-64.372-24.659-16.297-41.964-32.512-51.436-48.19-13.4-22.117-14.08-28.78-14.08-29.89v-33.427h-92.051V298.81c0 21.36 6.497 42.327 19.308 62.314 12.438 19.357 33.708 40.39 63.223 62.519l0.163 0.12c19.268 13.894 32.591 28.27 39.596 42.723 7.064 14.571 10.646 28.723 10.646 42.062 0 24.937-6.496 42.88-19.854 54.851-13.525 12.078-33.459 18.209-59.235 18.209-26.03 0-47.271-8.018-64.94-24.513-17.17-16.075-25.88-43.27-25.88-80.815v-10.838H307.067l0.482 11.298c2.697 63.234 23.803 110.987 62.732 141.933 38.26 30.466 85.257 45.916 139.68 45.916 59.537 0 107.183-13.814 141.614-41.06 35.163-27.874 52.987-64.385 52.987-108.528 0-30.01-8.497-58.077-25.255-83.418z"  horiz-adv-x="1024" />
      
      <glyph glyph-name="dengluyoujian" unicode="&#59219;" d="M1119.625846-54.744615H140.681846A140.839385 140.839385 0 0 0 0 85.779692V755.318154C0 832.905846 63.094154 896 140.681846 896h978.944C1197.213538 896 1260.307692 832.905846 1260.307692 755.318154v-669.459692c0-77.587692-63.094154-140.681846-140.681846-140.681847zM140.681846 798.089846c-23.630769 0-42.850462-19.219692-42.850461-42.850461v-669.459693c0-23.630769 19.219692-42.850462 42.850461-42.850461h978.944c23.630769 0 42.850462 19.219692 42.850462 42.850461V755.318154c0 23.630769-19.219692 42.850462-42.850462 42.850461H140.681846zM67.190154 769.339077L133.12 841.649231l527.281231-481.516308-65.929846-72.231385zM49.467077 88.142769L443.785846 482.461538l69.159385-69.159384-394.318769-394.318769-69.159385 69.159384zM595.259077 354.067692L1122.461538 835.584l66.008616-72.231385-527.36-481.516307-65.929846 72.310154zM742.636308 407.158154l69.159384 69.159384 394.31877-394.318769-69.159385-69.159384-394.318769 394.318769z m-112.324923-25.678769l64.984615-64.984616-64.984615-64.905846-64.984616 64.905846 64.984616 64.984616z"  horiz-adv-x="1260" />
      
      <glyph glyph-name="luyintingzhi" unicode="&#59218;" d="M512 896C229.229714 896 0 666.770286 0 384s229.229714-512 512-512 512 229.229714 512 512S794.770286 896 512 896z m0-73.142857c242.358857 0 438.857143-196.498286 438.857143-438.857143s-196.498286-438.857143-438.857143-438.857143S73.142857 141.641143 73.142857 384 269.641143 822.857143 512 822.857143zM292.571429 603.428571m109.714285 0l219.428572 0q109.714286 0 109.714285-109.714285l0-219.428572q0-109.714286-109.714285-109.714285l-219.428572 0q-109.714286 0-109.714285 109.714285l0 219.428572q0 109.714286 109.714285 109.714285Z"  horiz-adv-x="1024" />
      
      <glyph glyph-name="luyinzanting" unicode="&#59216;" d="M512 896C229.229714 896 0 666.770286 0 384s229.229714-512 512-512 512 229.229714 512 512S794.770286 896 512 896z m0-73.142857c242.358857 0 438.857143-196.498286 438.857143-438.857143s-196.498286-438.857143-438.857143-438.857143S73.142857 141.641143 73.142857 384 269.641143 822.857143 512 822.857143zM365.714286 566.857143m36.571428 0l36.571429 0q36.571429 0 36.571428-36.571429l0-292.571428q0-36.571429-36.571428-36.571429l-36.571429 0q-36.571429 0-36.571428 36.571429l0 292.571428q0 36.571429 36.571428 36.571429ZM548.571429 566.857143m36.571428 0l36.571429 0q36.571429 0 36.571428-36.571429l0-292.571428q0-36.571429-36.571428-36.571429l-36.571429 0q-36.571429 0-36.571428 36.571429l0 292.571428q0 36.571429 36.571428 36.571429Z"  horiz-adv-x="1024" />
      
      <glyph glyph-name="luyinbofang" unicode="&#59217;" d="M512 896C229.229714 896 0 666.770286 0 384s229.229714-512 512-512 512 229.229714 512 512S794.770286 896 512 896z m0-73.142857c242.358857 0 438.857143-196.498286 438.857143-438.857143s-196.498286-438.857143-438.857143-438.857143S73.142857 141.641143 73.142857 384 269.641143 822.857143 512 822.857143zM552.96 259.657143c-49.627429-31.817143-88.027429-58.514286-119.04-58.514286C380.818286 201.142857 365.714286 253.44 365.714286 384c0 127.451429 15.104 182.857143 71.314285 182.857143 31.012571 0 62.025143-17.444571 112.018286-52.297143 168.228571-111.177143 172.105143-147.236571 3.876572-254.902857z"  horiz-adv-x="1024" />
      
      <glyph glyph-name="guanwangjiantou" unicode="&#59215;" d="M742.997333-85.504l426.666667 419.242667a82.773333 82.773333 0 0 1 0 118.528l-426.666667 419.157333a86.357333 86.357333 0 0 1-120.661333 0 82.773333 82.773333 0 0 1 0-118.528l281.002667-276.053333H85.333333c-47.104 0-85.333333-37.546667-85.333333-83.882667 0-46.336 38.229333-83.797333 85.333333-83.797333h818.005334l-281.002667-276.138667a82.858667 82.858667 0 0 1 0-118.528c33.28-32.682667 87.381333-32.682667 120.661333 0z"  horiz-adv-x="1194" />
      
      <glyph glyph-name="URL" unicode="&#59212;" d="M698.181818 896a232.727273 232.727273 0 0 0 232.727273-232.727273v-56.925091a418.909091 418.909091 0 0 1-356.352-734.394181L257.768727-128a232.727273 232.727273 0 0 0-232.727272 232.727273V802.909091a93.090909 93.090909 0 0 0 93.090909 93.090909h580.049454zM837.818182 197.818182m-325.818182 0a325.818182 325.818182 0 1 1 651.636364 0 325.818182 325.818182 0 1 1-651.636364 0ZM651.822545 94.626909a83.781818 83.781818 0 0 0 28.718546 58.321455l28.672 26.437818a24.389818 24.389818 0 0 0 22.481454 5.911273c8.098909-1.954909 14.429091-7.773091 16.570182-15.26691a20.200727 20.200727 0 0 0-6.423272-20.712727l-28.672-26.437818a42.496 42.496 0 0 1-14.894546-30.114909 35.048727 35.048727 0 0 1 10.938182-27.322182c7.354182-6.656 17.361455-10.24 27.694545-10.053818a56.785455 56.785455 0 0 1 34.583273 13.684364l72.192 66.56a38.213818 38.213818 0 0 1 3.956364 56.552727 20.200727 20.200727 0 0 0-6.376728 20.712727 22.248727 22.248727 0 0 0 16.523637 15.266909 24.389818 24.389818 0 0 0 22.528-5.911273c16.104727-14.661818 25.041455-34.722909 24.669091-55.621818-0.279273-23.319273-10.612364-45.614545-28.625455-61.998545l-72.238545-66.56c-17.780364-16.570182-41.890909-26.065455-67.211637-26.437818a89.181091 89.181091 0 0 0-60.369454 22.807272 73.076364 73.076364 0 0 0-24.669091 60.183273zM921.6 199.819636l19.735273 18.199273 9.867636 9.122909a45.986909 45.986909 0 0 1 15.825455 29.184 35.002182 35.002182 0 0 1-10.845091 27.322182 40.215273 40.215273 0 0 1-27.741091 10.053818c-13.032727-0.186182-25.460364-5.12-34.629818-13.684363l-72.238546-66.56a38.213818 38.213818 0 0 1-3.956363-56.552728c6.050909-5.306182 8.517818-13.265455 6.423272-20.712727a22.248727 22.248727 0 0 0-16.570182-15.266909 24.436364 24.436364 0 0 0-22.528 5.911273 73.495273 73.495273 0 0 0-24.66909 55.621818c0.279273 23.319273 10.612364 45.614545 28.672 61.998545l72.238545 66.56c17.826909 16.570182 41.937455 26.065455 67.258182 26.437818 22.621091 0.046545 44.311273-8.145455 60.369454-22.807272 16.802909-15.732364 25.786182-37.189818 24.762182-59.252364a83.781818 83.781818 0 0 0-28.718545-58.321454l-9.914182-9.12291-18.757818-18.152727a24.762182 24.762182 0 0 0-32.674909 0 20.247273 20.247273 0 0 0-8.005819 14.615273 19.828364 19.828364 0 0 0 6.05091 15.453091z"  horiz-adv-x="1163" />
      
      <glyph glyph-name="zhuanlu1" unicode="&#59213;" d="M930.909091 896a93.090909 93.090909 0 0 0 93.090909-93.090909v-196.561455a418.909091 418.909091 0 0 1-509.44-455.121454L408.389818 151.272727l-107.287273-107.333818a46.545455 46.545455 0 0 0-13.172363-9.216l-5.026909-2.001454a46.545455 46.545455 0 0 0-56.832 24.389818l-2.048 5.026909L194.280727 151.272727H131.444364a93.090909 93.090909 0 0 0-93.090909 93.090909V802.909091a93.090909 93.090909 0 0 0 93.090909 93.090909h799.464727zM930.909091 197.818182m-325.818182 0a325.818182 325.818182 0 1 1 651.636364 0 325.818182 325.818182 0 1 1-651.636364 0ZM1047.272727 209.454545a23.272727 23.272727 0 1 0 46.545455 0 151.272727 151.272727 0 0 0-128-149.504v-25.041454a23.272727 23.272727 0 1 0-46.545455 0v25.041454a151.272727 151.272727 0 0 0-128 149.504 23.272727 23.272727 0 1 0 46.545455 0 104.727273 104.727273 0 0 1 209.454545 0zM942.545455 384a81.454545 81.454545 0 0 0 81.454545-81.454545v-93.09091a81.454545 81.454545 0 0 0-162.909091 0v93.09091c0 44.962909 36.491636 81.454545 81.454546 81.454545z"  horiz-adv-x="1256" />
      
      <glyph glyph-name="shangchuan1" unicode="&#59214;" d="M748.201798 881.360707c160.169933-44.031798 278.953388-180.180508 310.313244-345.769082a383.99824 383.99824 0 0 1-463.869874-535.634878L320.214426-0.000587c-166.655236-0.127999-305.491933 134.100719-319.102538 308.521253-13.567938 174.420534 102.655529 330.579818 267.09211 358.867688 95.060898 177.663186 292.265327 265.556116 479.9978 213.972353zM938.707591 170.665298m-298.665298 0a298.665298 298.665298 0 1 1 597.330596 0 298.665298 298.665298 0 1 1-597.330596 0ZM905.47041 226.85704v-210.644368c0-9.002625 7.509299-16.213259 16.81059-16.213259h32.895849a16.853256 16.853256 0 0 1 11.861279 4.693312 15.999927 15.999927 0 0 1 4.949311 11.519947v210.644368h33.109181c18.389249 0 24.447888 11.60528 13.439939 25.898548l-59.861059 77.780977c-11.093282 14.421267-28.885201 14.335934-39.893151 0l-59.861059-77.780977c-11.093282-14.421267-4.991977-25.898548 13.439939-25.898548h33.109181z"  horiz-adv-x="1237" />
      
      <glyph glyph-name="shanchu1" unicode="&#59211;" d="M545.792 830.976C272.896 851.456 45.056 623.104 65.536 350.72 81.92 131.072 258.56-46.08 478.72-62.464c272.896-20.48 500.736 207.872 480.256 480.256C942.592 637.44 765.44 814.592 545.792 830.976zM694.272 204.8c-12.288-12.288-32.256-12.288-45.056 0L512 338.944 377.856 204.8c-12.288-12.288-32.768-12.288-45.056 0-12.288 12.288-12.288 32.768 0 45.056L467.456 384 329.728 521.216c-12.288 12.288-12.288 32.768 0 45.056 12.288 12.288 32.768 12.288 45.056 0l134.144-134.144 135.68 135.68c11.776 11.776 30.72 12.288 43.52 1.536l3.072-3.072c13.824-12.288 14.336-33.28 1.536-46.592L557.056 384 693.76 249.856c12.8-12.288 12.8-32.768 0.512-45.056z"  horiz-adv-x="1024" />
      
      <glyph glyph-name="yidongduanjihe" unicode="&#59209;" d="M512 384m-512 0a512 512 0 1 1 1024 0 512 512 0 1 1-1024 0ZM224 608m41.6 0l492.8 0q41.6 0 41.6-41.6l0 0q0-41.6-41.6-41.6l-492.8 0q-41.6 0-41.6 41.6l0 0q0 41.6 41.6 41.6ZM224 384m41.6 0l364.8 0q41.6 0 41.6-41.6l0 0q0-41.6-41.6-41.6l-364.8 0q-41.6 0-41.6 41.6l0 0q0 41.6 41.6 41.6ZM224 160m41.6 0l236.8 0q41.6 0 41.6-41.6l0 0q0-41.6-41.6-41.6l-236.8 0q-41.6 0-41.6 41.6l0 0q0 41.6 41.6 41.6Z"  horiz-adv-x="1024" />
      
      <glyph glyph-name="yidongduanwenjianjia" unicode="&#59208;" d="M91.884308 804.115692v-827.076923h918.921846L1010.924308 620.307692H446.582154l-32.649846 131.702154c-5.277538 39.187692-10.161231 48.64-12.681846 50.845539 0 0-2.402462 1.260308-9.728 1.260307H91.884308z m918.921846-919.000615H92.002462A92.041846 92.041846 0 0 0 0-22.921846V804.115692A92.002462 92.002462 0 0 0 91.884308 896h299.638154c93.932308 0 106.850462-82.628923 113.112615-129.181538l13.705846-54.626462h492.583385A91.923692 91.923692 0 0 0 1102.769231 620.347077v-643.268923a92.002462 92.002462 0 0 0-91.923693-91.963077zM873.038769 397.115077H229.730462A46.08 46.08 0 0 0 183.808 443.076923a46.08 46.08 0 0 0 45.922462 45.961846h643.308307a46.08 46.08 0 0 0 45.922462-45.961846 46.08 46.08 0 0 0-45.922462-45.961846"  horiz-adv-x="1102" />
      
      <glyph glyph-name="yidongduantianjia" unicode="&#59210;" d="M512 896c274.214788 0 496.484848-222.270061 496.484848-496.484848v-31.030304c0-274.214788-222.270061-496.484848-496.484848-496.484848S15.515152 94.270061 15.515152 368.484848v31.030304C15.515152 673.729939 237.785212 896 512 896z m0-80.678788C285.602909 815.321212 101.469091 634.352485 96.318061 409.196606L96.193939 399.515152v-31.030304c0-229.624242 186.181818-415.806061 415.806061-415.80606 226.397091 0 410.530909 180.968727 415.681939 406.124606L927.806061 368.484848v31.030304c0 229.624242-186.181818 415.806061-415.806061 415.80606zM232.727273 430.545455m46.545454 0l465.454546 0q46.545455 0 46.545454-46.545455l0 0q0-46.545455-46.545454-46.545455l-465.454546 0q-46.545455 0-46.545454 46.545455l0 0q0 46.545455 46.545454 46.545455ZM558.545455 647.757576m0-46.545455l0-434.424242q0-46.545455-46.545455-46.545455l0 0q-46.545455 0-46.545455 46.545455l0 434.424242q0 46.545455 46.545455 46.545455l0 0q46.545455 0 46.545455-46.545455Z"  horiz-adv-x="1024" />
      
      <glyph glyph-name="huojian" unicode="&#59205;" d="M169.490963 52.717037c31.668148 255.772444 167.177481 253.952 167.177481 253.952l86.736593-86.736593s1.517037-128.568889-254.217481-160.237037l0.303407-6.97837zM231.348148 117.229037c36.939852 197.745778 125.686519 165.925926 125.686519 165.925926l23.438222-23.476148s20.328296-13.198222 20.100741-20.100741C397.274074 129.137778 231.348148 117.229037 231.348148 117.229037zM421.129481 222.208l-81.92 86.546963 18.735408 18.735407 84.233481-84.233481zM539.496296 87.912296c-20.707556-20.707556-41.339259-34.550519-68.797629-41.60474 34.816 82.488889 14.942815 185.116444-56.50963 256.568888-71.452444 71.49037-170.666667 94.814815-253.155556 59.960889a204.686222 204.686222 0 0 0 45.018075 65.422223c86.243556 86.243556 230.058667 73.500444 321.953185-18.356149 98.721185-91.856593 97.735111-235.747556 11.491555-321.991111zM378.311111 347.818667c-60.871111 41.604741-137.367704 53.854815-199.604148 32.616296a178.555259 178.555259 0 0 0 41.14963 61.591704c67.432296 67.470222 176.658963 67.432296 264.419555 11.794963l-105.965037-106.002963zM690.782815 365.947259c-70.883556-70.921481-155.685926-114.346667-233.927111-137.367703-10.467556 23.969185-27.799704 48.052148-48.469334 68.759703-20.707556 20.66963-48.165926 34.62637-68.759703 48.469334 16.19437 78.317037 69.935407 159.592296 140.818963 230.475851 114.839704 107.937185 254.103704 164.446815 366.857481 146.204445 18.204444-105.965037-41.680593-248.604444-156.520296-356.54163zM849.009778 720.782222c10.391704-111.653926-43.425185-246.859852-158.226963-354.834963-70.883556-70.921481-155.344593-114.688-233.092741-138.202074-13.577481 20.328296-33.905778 47.407407-50.858667 64.360296L849.047704 720.782222zM810.628741 534.490074l-10.505482-17.483852s-80.744296 101.717333-168.429037 168.429037l21.010963 6.978371c3.489185 3.489185 119.239111-91.287704 157.923556-157.923556zM466.526815 309.703111c-49.34163-49.303704-98.531556-79.113481-131.223704-85.864296 6.750815 32.692148 39.74637 78.65837 85.82637 124.700444 46.042074 46.042074 95.269926 75.851852 127.962075 82.602667-6.750815-26.168889-36.522667-75.358815-82.564741-121.438815zM333.899852 225.204148c7.698963 31.781926 41.14963 77.293037 87.229629 123.335111 46.042074 46.042074 94.549333 76.534519 126.33126 84.195556l-213.560889-207.530667zM821.172148 538.055111c-22.414222 28.823704-44.86637 51.237926-70.504296 76.875852L676.977778 688.621037c63.905185 25.448296 124.624593 34.891852 179.01037 25.182815 3.299556-54.347852-6.144-115.067259-34.816-175.748741zM751.009185 608.218074l-77.217185 77.217185c67.128889 25.031111 131.375407 33.109333 189.515852 21.048889l-112.298667-98.228148zM672.426667 560.469333c12.401778-12.401778 18.356148-25.106963 17.597629-44.525037 2.578963-16.080593-4.437333-29.278815-17.901037-42.742518-23.589926-23.589926-59.088593-21.807407-83.930074 3.034074-21.769481 21.769481-20.176593 60.643556 0 80.858074 23.893333 30.037333 59.354074 28.254815 84.195556 3.413333zM684.335407 548.598519c18.962963-18.962963 17.521778-45.662815 0-63.184593-17.559704-17.559704-47.407407-15.815111-63.184592 0-18.962963 18.962963-17.521778 45.624889 0 63.146667 17.559704 17.559704 44.22163 18.962963 63.184592 0z"  horiz-adv-x="1024" />
      
      <glyph glyph-name="shipinguanbizimu" unicode="&#59207;" d="M888.030069 782.474169c24.104473 0 43.671634-19.73731 43.671635-44.125365v-705.778981c0-24.388055-19.567161-44.125365-43.671635-44.125366H101.940655a43.8985 43.8985 0 0 0-43.671634 44.125366V738.348804C58.269021 762.736859 77.836181 782.474169 101.940655 782.474169h786.089414z m-43.671634-88.250731H145.612289v-617.52825h698.746146V694.223438zM363.97046 561.904058c48.208947 0 91.880581-19.73731 123.528336-51.725364l-61.707452-62.388048A86.719388 86.719388 0 0 1 330.507779 467.017508C297.895844 453.348854 276.627191 421.19065 276.627191 385.459313c0-35.731337 21.268653-67.88954 53.880588-81.558195 32.668651-13.668654 70.214913-6.125372 95.226849 19.11343l61.764168-62.388049a173.438776 173.438776 0 0 0-190.340265-38.170142A176.501462 176.501462 0 0 0 189.283923 385.459313c0 97.382073 78.268643 176.444745 174.686537 176.444745z m305.701439 0c48.208947 0 91.880581-19.73731 123.528336-51.725364l-61.707452-62.388048a86.719388 86.719388 0 0 1-95.226849 19.226862C603.597283 453.348854 582.32863 421.19065 582.32863 385.459313c0-35.731337 21.268653-67.88954 53.880588-81.558195 32.668651-13.668654 70.214913-6.125372 95.226849 19.11343l61.764168-62.388049a173.438776 173.438776 0 0 0-190.340265-38.170142A176.501462 176.501462 0 0 0 494.985362 385.459313c0 97.382073 78.268643 176.444745 174.686537 176.444745zM743.23308 869.250273a56.716408 56.716408 0 0 0 99.367147-54.334319l-3.176119-5.785073-567.16408-907.462528a56.716408 56.716408 0 0 0-99.423863 54.334319l3.232835 5.785073 567.16408 907.462528z"  horiz-adv-x="1024" />
      
      <glyph glyph-name="shipinjingyin" unicode="&#59204;" d="M517.7344 887.6032A53.521067 53.521067 0 0 0 546.133333 839.68V-9.898667c0-20.48-11.0592-39.185067-28.398933-47.991466a47.104 47.104 0 0 0-52.701867 6.894933l-259.345066 226.986667H49.629867C22.254933 175.991467 0 199.68 0 229.034667V600.746667c0 29.354667 22.254933 53.0432 49.629867 53.0432h156.0576L465.032533 880.776533a47.104 47.104 0 0 0 52.701867 6.826667zM914.090667 570.026667l70.519466-70.4512-100.352-100.215467 100.352-100.215467-70.4512-70.4512-100.215466 100.352-100.283734-100.352-70.382933 70.4512 100.215467 100.215467-100.215467 100.215467 70.382933 70.4512 100.283734-100.215467 100.215466 100.215467z"  horiz-adv-x="1024" />
      
      <glyph glyph-name="shipinyinliangxiao" unicode="&#59206;" d="M586.001067 887.6032A53.521067 53.521067 0 0 0 614.4 839.68V-9.898667c0-20.48-11.0592-39.185067-28.398933-47.991466a47.104 47.104 0 0 0-52.701867 6.894933l-259.345067 226.986667H117.896533C90.5216 175.991467 68.266667 199.68 68.266667 229.034667V600.746667c0 29.354667 22.254933 53.0432 49.629866 53.0432h156.0576L533.2992 880.776533a47.104 47.104 0 0 0 52.701867 6.826667zM781.7216 160.768L700.893867 238.523733a215.176533 215.176533 0 0 1 88.610133 173.124267c0 78.097067-42.5984 146.6368-106.837333 185.275733l81.783466 78.574934c87.381333-61.713067 138.8544-159.744 138.786134-263.850667 0-100.625067-47.172267-190.600533-121.514667-250.743467z"  horiz-adv-x="1024" />
      
      <glyph glyph-name="shipinyinliangda" unicode="&#59199;" d="M517.7344 887.6032A53.521067 53.521067 0 0 0 546.133333 839.68V-9.898667c0-20.48-11.0592-39.185067-28.398933-47.991466a47.104 47.104 0 0 0-52.701867 6.894933l-259.345066 226.986667H49.629867C22.254933 175.991467 0 199.68 0 229.034667V600.746667c0 29.354667 22.254933 53.0432 49.629867 53.0432h156.0576L465.032533 880.776533a47.104 47.104 0 0 0 52.701867 6.826667zM929.792-59.733333l-78.506667 81.92c106.2912 98.645333 167.048533 240.093867 166.843734 388.573866 0.136533 156.330667-67.106133 304.3328-183.159467 403.114667L913.681067 896c136.738133-120.832 215.517867-298.325333 215.313066-485.239467 0-186.368-76.8-354.0992-199.202133-470.493866z m-216.337067 220.501333L632.6272 238.523733a215.176533 215.176533 0 0 1 88.610133 173.124267c0 78.097067-42.5984 146.6368-106.837333 185.275733l81.783467 78.574934c87.381333-61.713067 138.8544-159.744 138.786133-263.850667 0-100.625067-47.172267-190.600533-121.514667-250.743467z"  horiz-adv-x="1160" />
      
      <glyph glyph-name="shipinquanpingmu" unicode="&#59197;" d="M987.648 886.710857c44.105143 0 79.945143-35.84 79.945143-80.018286v-206.994285h-137.069714v149.942857H783.36V886.637714h204.288z m79.945143-721.188571v-204.214857c0-44.178286-35.84-80.018286-79.945143-80.018286H783.36v137.142857h147.163429v147.017143h137.069714zM199.314286 168.374857v-149.942857h149.942857v-137.142857H142.189714c-44.178286 0-80.018286 35.84-80.018285 80.018286V168.228571h137.142857z m147.017143 718.262857v-137.069714h-147.017143v-147.017143H62.171429V806.619429C62.171429 850.870857 98.011429 886.710857 142.189714 886.710857h204.214857z"  horiz-adv-x="1097" />
      
      <glyph glyph-name="shipingzanting" unicode="&#59198;" d="M146.285714 822.857143m73.142857 0l73.142858 0q73.142857 0 73.142857-73.142857l0-731.428572q0-73.142857-73.142857-73.142857l-73.142858 0q-73.142857 0-73.142857 73.142857l0 731.428572q0 73.142857 73.142857 73.142857ZM658.285714 822.857143m73.142857 0l73.142858 0q73.142857 0 73.142857-73.142857l0-731.428572q0-73.142857-73.142857-73.142857l-73.142858 0q-73.142857 0-73.142857 73.142857l0 731.428572q0 73.142857 73.142857 73.142857Z"  horiz-adv-x="1024" />
      
      <glyph glyph-name="shipinyincang" unicode="&#59200;" d="M0 457.142857m73.142857 0l877.714286 0q73.142857 0 73.142857-73.142857l0 0q0-73.142857-73.142857-73.142857l-877.714286 0q-73.142857 0-73.142857 73.142857l0 0q0 73.142857 73.142857 73.142857Z"  horiz-adv-x="1024" />
      
      <glyph glyph-name="shipinsuoxiaopingmu" unicode="&#59201;" d="M946.688 203.52v-178.752c0-38.656-31.36-69.952-70.016-69.952H697.984v119.936h128.704V203.52h120zM315.648 834.56v-120H186.88v-128.704H66.944V764.544C66.944 803.2 98.304 834.496 136.96 834.496h178.688z m628.48-18.496a54.4 54.4 0 0 0 0-76.8l-155.712-155.904h91.776v-108.8H663.36a72.448 72.448 0 0 0-72.448 72.512V765.44H699.52v-117.12l167.68 167.808a54.336 54.336 0 0 0 76.928 0zM79.872-47.936a54.4 54.4 0 0 0 0 76.8l155.776 155.904H143.68V293.504h217.088c40 0 72.448-32.448 72.448-72.512v-218.24H324.48V119.68l-167.68-167.872a54.272 54.272 0 0 0-76.8 0l-0.192 0.192z"  horiz-adv-x="1024" />
      
      <glyph glyph-name="shipinzimu" unicode="&#59202;" d="M1070.080731 896c31.085714 0 56.32-25.453714 56.32-56.905143v-910.189714c0-31.451429-25.234286-56.905143-56.32-56.905143H56.320731a56.612571 56.612571 0 0 0-56.32 56.905143V839.094857C0.000731 870.546286 25.235017 896 56.320731 896h1013.76z m-56.32-113.810286H112.640731v-796.379428h901.12V782.189714zM394.240731 611.547429c62.171429 0 118.491429-25.453714 159.305143-66.706286l-79.579428-80.457143A111.835429 111.835429 0 0 1 351.086446 489.179429C309.029303 471.552 281.600731 430.08 281.600731 384c0-46.08 27.428571-87.552 69.485715-105.179429 42.130286-17.627429 90.550857-7.899429 122.806857 24.649143l79.652571-80.457143a223.670857 223.670857 0 0 0-245.467428-49.225142A227.620571 227.620571 0 0 0 168.960731 384c0 125.586286 100.937143 227.547429 225.28 227.547429z m394.24 0c62.171429 0 118.491429-25.453714 159.305143-66.706286l-79.579428-80.457143a111.835429 111.835429 0 0 1-122.806857 24.795429C703.269303 471.552 675.840731 430.08 675.840731 384c0-46.08 27.428571-87.552 69.485715-105.179429 42.130286-17.627429 90.550857-7.899429 122.806857 24.649143l79.652571-80.457143a223.670857 223.670857 0 0 0-245.467428-49.225142A227.620571 227.620571 0 0 0 563.200731 384c0 125.586286 100.937143 227.547429 225.28 227.547429z"  horiz-adv-x="1170" />
      
      <glyph glyph-name="shipinbofang1" unicode="&#59203;" d="M844.936533 348.501333L349.5936 1.706667a68.266667 68.266667 0 0 0-107.383467 55.978666V751.138133a68.266667 68.266667 0 0 0 107.383467 55.978667l495.342933-346.794667a68.266667 68.266667 0 0 0 0-111.8208z"  horiz-adv-x="1024" />
      
      <glyph glyph-name="suolve" unicode="&#59196;" d="M102.4 384m-102.4 0a102.4 102.4 0 1 1 204.8 0 102.4 102.4 0 1 1-204.8 0ZM512 384m-102.4 0a102.4 102.4 0 1 1 204.8 0 102.4 102.4 0 1 1-204.8 0ZM921.6 384m-102.4 0a102.4 102.4 0 1 1 204.8 0 102.4 102.4 0 1 1-204.8 0Z"  horiz-adv-x="1024" />
      
      <glyph glyph-name="loaderjiazai" unicode="&#59179;" d="M512 170.667A42.667 42.667 0 0 0 554.667 128v-170.667a42.667 42.667 0 0 0-85.334 0V128A42.667 42.667 0 0 0 512 170.667zM361.13 233.13a42.667 42.667 0 0 0 0-60.331L240.47 52.139a42.667 42.667 0 1 0-60.331 60.33L300.8 233.131a42.667 42.667 0 0 0 60.33 0z m362.07 0l120.661-120.662a42.667 42.667 0 0 0-60.33-60.33L662.869 172.8a42.667 42.667 0 0 0 60.331 60.33zM256 426.667a42.667 42.667 0 0 0 0-85.334H85.333a42.667 42.667 0 0 0 0 85.334H256z m682.667 0a42.667 42.667 0 0 0 0-85.334H768a42.667 42.667 0 0 0 0 85.334h170.667zM843.86 715.86a42.667 42.667 0 0 0 0-60.33L723.2 534.869a42.667 42.667 0 0 0-60.33 60.331l120.66 120.661a42.667 42.667 0 0 0 60.331 0z m-603.392 0L361.131 595.2a42.667 42.667 0 1 0-60.331-60.33L180.139 655.53a42.667 42.667 0 0 0 60.33 60.331zM512 853.333a42.667 42.667 0 0 0 42.667-42.666V640a42.667 42.667 0 0 0-85.334 0V810.667A42.667 42.667 0 0 0 512 853.333z"  horiz-adv-x="1024" />
      
      <glyph glyph-name="yuyin" unicode="&#59176;" d="M484.723579 802.909157a140.11159 140.11159 0 0 1-140.623481-139.672827v-186.108558c0-77.076 62.889336-139.5997 140.623481-139.599701a140.11159 140.11159 0 0 1 140.550353 139.672828V663.23633c0 77.076-62.889336 139.5997-140.550353 139.5997z m165.706087 24.863226a231.813017 231.813017 0 0 0 68.593253-164.536053v-186.108558c0-128.484376-104.864311-232.617416-234.29934-232.617416-129.435029 0-234.372467 104.13304-234.372467 232.617416V663.309457c0 94.114622 57.039165 178.942099 144.645472 214.993776a235.615628 235.615628 0 0 0 255.433082-50.457723zM110.678284 432.812728l1.316289 0.219382c25.960133 3.802611 50.457723-13.162884 55.796003-38.757382 0.731271-3.729484 1.462543-6.947078 2.193814-9.506527a327.902072 327.902072 0 0 1 311.302213-232.909925A328.048327 328.048327 0 0 1 797.195826 378.259886a93.602733 93.602733 0 0 1 2.925085 12.358485 51.04274 51.04274 0 0 0 50.457723 42.340611h4.753264c12.577867 0 24.49759-5.703917 32.322194-15.502952a40.804941 40.804941 0 0 0 7.89773-34.735389 420.992915 420.992915 0 0 0-364.026877-321.759393v-142.232278a46.728239 46.728239 0 0 0-46.874493-46.508857 46.728239 46.728239 0 0 0-46.874494 46.508857V60.88812a421.066042 421.066042 0 0 0-363.44186 318.614927 43.364391 43.364391 0 0 0 6.362061 34.516007 43.949408 43.949408 0 0 0 29.908998 18.720547z"  horiz-adv-x="1024" />
      
      <glyph glyph-name="shanchu" unicode="&#59168;" d="M931.328-34.889143a72.338286 72.338286 0 0 0-99.766857 0L512.438857 284.233143l-319.195428-319.122286a72.338286 72.338286 0 0 0-99.766858 0 72.338286 72.338286 0 0 0 0 99.693714L412.672 384 93.476571 703.195429a72.338286 72.338286 0 0 0 0 99.693714 72.338286 72.338286 0 0 0 99.766858 0l319.195428-319.122286 319.122286 319.122286a72.338286 72.338286 0 0 0 99.766857 0c26.624-26.550857 26.624-73.142857 0-99.693714L612.132571 384l319.195429-319.195429c33.206857-26.550857 33.206857-73.142857 0-99.693714"  horiz-adv-x="1024" />
      
      <glyph glyph-name="baocun1" unicode="&#59194;" d="M863.670857 896H160.329143A160.548571 160.548571 0 0 1 0 735.670857v-703.341714C0-56.100571 71.899429-128 160.329143-128h703.341714A160.548571 160.548571 0 0 1 1024 32.329143V735.670857A160.548571 160.548571 0 0 1 863.670857 896zM337.408 804.352h349.184v-298.715429a65.828571 65.828571 0 0 0-65.828571-65.755428H403.163429a65.828571 65.828571 0 0 0-65.828572 65.828571V804.278857h0.146286z m594.944-772.022857a68.754286 68.754286 0 0 0-68.754286-68.754286H160.402286a68.754286 68.754286 0 0 0-68.754286 68.754286V735.670857a68.754286 68.754286 0 0 0 68.754286 68.754286h85.504v-298.788572c0-86.674286 70.509714-157.403429 157.330285-157.403428H620.982857a157.549714 157.549714 0 0 1 157.403429 157.403428V804.352h85.357714a68.754286 68.754286 0 0 0 68.754286-68.754286v-703.268571zM583.387429 520.192c25.307429 0 45.787429 20.48 45.787428 45.787429v107.52a45.787429 45.787429 0 1 1-91.648 0v-107.52c0-25.161143 20.48-45.787429 45.860572-45.787429z"  horiz-adv-x="1024" />
      
      <glyph glyph-name="lock" unicode="&#59195;" d="M828.631579 495.831579h-32.552421V625.987368a254.113684 254.113684 0 0 1-74.805895 178.28379 253.952 253.952 0 0 1-180.816842 74.913684 253.952 253.952 0 0 1-180.816842-74.913684A254.113684 254.113684 0 0 1 284.833684 625.987368v-130.101894h-32.552421c-50.499368 0-91.459368-41.013895-91.459368-91.405474v-403.941053c0-50.499368 41.067789-91.459368 91.459368-91.459368h576.565895c50.499368 0 91.459368 41.067789 91.459368 91.459368V404.426105a91.782737 91.782737 0 0 1-91.621052 91.405474zM371.604211 625.987368a169.067789 169.067789 0 0 0 168.85221 166.373053 169.067789 169.067789 0 0 0 168.852211-166.373053h-0.10779v-130.101894H371.604211V625.987368z m461.71621-625.448421c0-2.479158-2.155789-4.581053-4.581053-4.581052H252.227368a4.634947 4.634947 0 0 0-4.581052 4.581052V404.426105c0 2.479158 2.155789 4.581053 4.581052 4.581053h576.565895c2.533053 0 4.581053-2.155789 4.581053-4.581053v-403.941052z m-295.235368 285.80379a53.894737 53.894737 0 0 0 53.894736-53.894737v-107.789474a53.894737 53.894737 0 0 0-107.789473 0v107.789474a53.894737 53.894737 0 0 0 53.894737 53.894737z"  horiz-adv-x="1024" />
      
      <glyph glyph-name="yinliang" unicode="&#59171;" d="M462.421333-7.808c29.610667-23.04 64.768-41.728 102.314667-25.685333 37.248 16 49.109333 54.4 54.314667 92.202666 5.290667 38.741333 5.290667 92.117333 5.290666 158.421334v251.52c0 66.346667 0 119.68-5.248 158.464-5.162667 37.76-17.109333 76.202667-54.272 92.16-37.632 16.128-72.789333-2.602667-102.4-25.685334-30.293333-23.594667-68.693333-63.36-113.92-110.165333-23.296-24.106667-38.741333-35.797333-54.314666-42.282667-15.786667-6.570667-34.858667-9.386667-68.138667-9.386666-28.842667 0-54.613333 0-74.154667-2.090667-20.394667-2.133333-39.424-6.826667-56.533333-18.688-32.512-22.528-44.970667-55.466667-49.792-85.845333-3.413333-22.570667-2.986667-47.36-2.688-67.413334v-29.610666c-0.341333-19.968-0.64-44.8 2.816-67.498667 4.736-30.293333 17.194667-63.232 49.792-85.76 17.066667-11.818667 36.053333-16.554667 56.490667-18.730667 19.498667-2.005333 45.226667-2.005333 74.069333-2.005333 33.365333 0 52.437333-2.816 68.138667-9.386667 15.616-6.570667 31.018667-18.218667 54.272-42.24 45.226667-46.848 83.712-86.698667 114.005333-110.293333h-0.042667z m232.832 184.917333a42.709333 42.709333 0 0 1 60.330667 8.234667 261.546667 261.546667 0 0 1 51.925333 157.568c0 59.306667-19.328 114.261333-51.925333 157.610667a42.88 42.88 0 0 1-75.349333-8.746667c-5.888-14.933333-3.242667-31.872 6.826666-44.245333 21.333333-28.288 34.304-64.597333 34.304-104.618667 0-39.978667-13.013333-76.288-34.261333-104.576a44.117333 44.117333 0 0 1 8.064-61.226667h0.085333zM883.754667 115.072a43.008 43.008 0 0 0-74.410667 15.445333 43.690667 43.690667 0 0 0 10.752 43.221334c47.36 52.181333 74.965333 117.589333 74.965333 187.946666 0 70.4-27.562667 135.765333-74.965333 187.904a43.690667 43.690667 0 0 0 3.925333 60.032 42.965333 42.965333 0 0 0 59.733334-1.365333C944.341333 541.696 981.333333 455.893333 981.333333 361.685333c0-94.165333-37.034667-180.010667-97.578666-246.613333z"  horiz-adv-x="1024" />
      
      <glyph glyph-name="guanbishipin" unicode="&#59173;" d="M785.792 678.656v-557.312a92.885333 92.885333 0 0 0-92.885333-92.885333H347.861333l167.082667 289.365333 68.48 42.794667a46.464 46.464 0 0 1 1.28 77.994666l159.146667 275.712c6.058667 10.496 9.898667 21.717333 11.52 32.981334 18.688-16.896 30.421333-41.386667 30.421333-68.650667zM562.346667 771.541333l-135.338667-234.453333-81.066667 50.773333a46.464 46.464 0 0 1-71.082666-39.424v-274.773333l-133.12-230.698667a93.482667 93.482667 0 0 1-6.826667-14.506666h0.597333A92.885333 92.885333 0 0 0 42.666667 121.344V678.656a92.885333 92.885333 0 0 0 92.885333 92.885333h426.837333zM747.776 514.986667l162.816 93.738666c14.464 8.32 32.426667 8.533333 47.018667 0.554667 14.677333-7.936 23.722667-22.826667 23.722666-38.954667v-379.733333c0-16.170667-9.045333-31.061333-23.722666-38.997333a48.384 48.384 0 0 0-47.018667 0.554666l-162.816 93.781334c-49.237333 28.330667-79.36 79.402667-79.36 134.528 0 55.082667 30.122667 106.154667 79.36 134.528zM721.066667 844.885333c26.88-15.445333 32.597333-36.522667 17.066666-63.232L249.173333-59.946667c-15.530667-26.709333-36.693333-32.341333-63.573333-16.938666-26.88 15.445333-32.597333 36.522667-17.066667 63.232L657.493333 827.946667c15.530667 26.709333 36.693333 32.341333 63.573334 16.938666z"  horiz-adv-x="1024" />
      
      <glyph glyph-name="zanting" unicode="&#59183;" d="M205.44 868.096m100.565333 0l0 0q100.565333 0 100.565334-100.565333l0-737.536q0-100.565333-100.565334-100.565334l0 0q-100.565333 0-100.565333 100.565334l0 737.536q0 100.565333 100.565333 100.565333ZM621.141333 868.096m100.565334 0l0 0q100.565333 0 100.565333-100.565333l0-737.536q0-100.565333-100.565333-100.565334l0 0q-100.565333 0-100.565334 100.565334l0 737.536q0 100.565333 100.565334 100.565333Z"  horiz-adv-x="1024" />
      
      <glyph glyph-name="shipinbofang" unicode="&#59189;" d="M810.666667 148.224A148.224 148.224 0 0 0 662.442667 0H190.890667A148.224 148.224 0 0 0 42.666667 148.224V619.776A148.224 148.224 0 0 0 190.890667 768h471.552A148.224 148.224 0 0 0 810.666667 619.776V554.666667l132.864 83.029333a24.704 24.704 0 0 0 37.802666-20.906667v-465.536a24.704 24.704 0 0 0-37.802666-20.949333L810.666667 213.333333v-65.109333zM348.074667 546.304c-26.837333 0-48.64-21.333333-49.408-48.042667v-227.157333a49.408 49.408 0 0 1 74.624-42.496l1.194666 0.768 178.261334 112.896a49.408 49.408 0 0 1 1.237333 82.688l-1.237333 0.768-178.261334 112.896c-7.893333 5.034667-17.066667 7.68-26.410666 7.68z"  horiz-adv-x="1024" />
      
      <glyph glyph-name="bofang" unicode="&#59193;" d="M598.272 35.797333C462.336-53.162667 357.205333-128 272.213333-128 126.72-128 85.333333 18.432 85.333333 384c0 356.864 41.386667 512 195.413334 512 84.906667 0 169.898667-48.810667 306.901333-146.432 460.885333-311.338667 471.466667-412.202667 10.624-713.770667z"  horiz-adv-x="1024" />
      
      <glyph glyph-name="anquan" unicode="&#59192;" d="M876.867368 740.621474c-143.845053 16.491789-252.442947 56.266105-322.182736 118.568421l-18.324211 16.437894-19.833263-14.22821c-108.651789-80.303158-216.495158-120.724211-320.026947-120.724211h-30.82779v-440.32c0-135.006316 116.736-257.239579 355.974737-374.245052l12.503579-5.982316 12.449684 5.928421c237.136842 104.286316 357.483789 230.292211 357.48379 375.107368V737.603368l-27.162948 2.964211z m-53.733052-434.229895c0-107.304421-96.794947-205.500632-287.528421-291.031579-191.488 95.393684-288.229053 193.536-288.229053 291.031579V660.48c93.992421 6.305684 190.086737 42.792421 286.181053 109.406316 69.254737-54.002526 165.995789-89.734737 288.175158-106.60379v-356.890947h1.401263zM733.291789 467.536842l-198.709894-198.709895a35.462737 35.462737 0 0 0-49.906527 0l-145.515789 145.51579a35.247158 35.247158 0 1 0 49.906526 49.906526l120.454737-120.400842 173.702737 173.702737a35.247158 35.247158 0 0 0 49.906526 0 35.301053 35.301053 0 0 0 0.161684-50.068211z"  horiz-adv-x="1024" />
      
      <glyph glyph-name="jiangyanzhe" unicode="&#59190;" d="M511.991223 896a511.991223 511.991223 0 1 0 0-1023.982446A511.991223 511.991223 0 0 0 511.991223 896z m0-87.769924a424.221299 424.221299 0 1 1 0-848.442598A424.221299 424.221299 0 0 1 511.991223 808.230076zM511.991223 676.57519a219.42481 219.42481 0 1 0 0-438.84962 219.42481 219.42481 0 0 0 0 438.84962z m0-73.141603a146.283207 146.283207 0 1 1 0-292.566413 146.283207 146.283207 0 0 1 0 292.566413zM511.991223 310.867174a292.566413 292.566413 0 0 0 292.566413-292.566413c0-79.504923-148.550596-145.039799-292.566413-146.283207-148.477455-1.243407-292.566413 64.218328-292.566413 146.283207a292.566413 292.566413 0 0 0 292.566413 292.566413z m0-73.141604a219.42481 219.42481 0 0 1-219.42481-219.424809c0-5.339337 14.628321-21.723056 49.370582-38.545625 45.347794-21.942481 107.591298-35.10797 169.395954-34.595979 60.341823 0.511991 123.097318 14.408896 169.24967 36.570802 20.479649 9.800975 35.912527 20.479649 45.055227 30.207482l5.631904 6.582744A219.205385 219.205385 0 0 1 511.991223 237.72557z"  horiz-adv-x="1024" />
      
      <glyph glyph-name="shijian" unicode="&#59191;" d="M512 896a512 512 0 1 0 0-1024A512 512 0 0 0 512 896z m0-87.771429a424.228571 424.228571 0 1 1 0-848.457142A424.228571 424.228571 0 0 1 512 808.228571zM409.6 666.185143m43.885714 0l0 0q43.885714 0 43.885715-43.885714l0-277.942858q0-43.885714-43.885715-43.885714l0 0q-43.885714 0-43.885714 43.885714l0 277.942858q0 43.885714 43.885714 43.885714ZM782.628571 380.928m0-43.885714l0 0q0-43.885714-43.885714-43.885715l-277.942857 0q-43.885714 0-43.885714 43.885715l0 0q0 43.885714 43.885714 43.885714l277.942857 0q43.885714 0 43.885714-43.885714Z"  horiz-adv-x="1024" />
      
      <glyph glyph-name="bijiben" unicode="&#59158;" d="M1213.553493-69.632l-82.432 290.218667V852.48a43.52 43.52 0 0 1-43.52 43.605333H128.710827a43.52 43.52 0 0 1-43.52-43.52v-631.893333l-82.517334-290.133333A43.52 43.52 0 0 1 43.633493-128H1172.593493a43.605333 43.605333 0 0 1 40.96 58.368zM183.153493 797.952h849.92v-537.856h-849.92V797.866667zM494.193493-29.866667l11.093334 50.346667h204.629333l11.093333-50.346667H494.10816z m305.066667 0L773.233493 88.149333a10.922667 10.922667 0 0 1-10.581333 8.533334H452.550827a10.837333 10.837333 0 0 1-10.581334-8.533334l-26.026666-118.101333H115.910827l57.685333 202.837333h869.12l57.685333-202.837333h-301.226666z"  horiz-adv-x="1280" />
      
      <glyph glyph-name="a-bianjizhongmingming" unicode="&#59162;" d="M258.578434 272.890559l-13.896954-139.847245a16.749487 16.749487 0 0 1 16.676345-18.358608l139.335252 14.48209a15.067224 15.067224 0 0 1 10.60557 4.388511l469.790196 471.033608-147.161432 149.86768-470.302188-471.472458a17.334622 17.334622 0 0 1-5.046789-10.093578z m753.434346 520.55065l-0.511993 0.511993L922.340854 883.69827A41.837146 41.837146 0 0 1 891.621271 895.986103a41.17887 41.17887 0 0 1-29.476171-12.287833l-81.918888-85.283414 149.355687-148.770553 81.918888 84.698279a41.837146 41.837146 0 0 1 0.511993 59.098627zM927.387643 417.2726a55.734101 55.734101 0 0 1-55.734101-55.734101v-365.563039H111.490144v713.864598h383.994789a55.734101 55.734101 0 1 1 0 111.468201H103.663965A105.324285 105.324285 0 0 1 0.021943 714.301712v-724.470168c0-58.147782 47.176503-105.324285 105.324285-105.324285h772.963224a105.324285 105.324285 0 0 1 104.812292 104.73915v372.29209a55.734101 55.734101 0 0 1-55.734101 55.734101z"  horiz-adv-x="1024" />
      
      <glyph glyph-name="chazhao" unicode="&#59163;" d="M1007.250286-30.427429l-149.869715 149.796572a479.963429 479.963429 0 1 1-80.822857-80.822857l149.942857-149.796572a56.978286 56.978286 0 0 1 80.749715 0 57.124571 57.124571 0 0 1 0 80.822857z m-527.286857 57.856a386.048 386.048 0 0 0-274.724572 113.810286A387.364571 387.364571 0 0 0 91.428571 416.036571a386.048 386.048 0 0 0 113.810286 274.724572A387.364571 387.364571 0 0 0 479.963429 804.571429a386.048 386.048 0 0 0 274.797714-113.810286 387.364571 387.364571 0 0 0 113.810286-274.724572 386.048 386.048 0 0 0-113.810286-274.797714 387.364571 387.364571 0 0 0-274.797714-113.810286z"  horiz-adv-x="1024" />
      
      <glyph glyph-name="bianji" unicode="&#59164;" d="M716.458667 601.634133l38.2976 38.0928c35.0208 36.181333 34.474667 93.457067-1.160534 128.955734a93.184 93.184 0 0 1-129.8432 1.160533l-35.2256-35.2256 127.931734-132.983467z m-64.443734-64.034133L523.8784 670.856533 195.1744 344.405333v-130.184533h131.072L651.946667 537.6z m170.052267 37.410133L364.544 121.856H102.536533V382.498133L559.991467 835.515733a186.299733 186.299733 0 0 0 262.3488-0.2048 182.954667 182.954667 0 0 0-0.273067-260.3008z m-673.792-550.434133h714.274133c16.384 0 31.402667-8.669867 39.594667-22.7328 8.192-14.062933 8.192-31.402667 0-45.4656a45.806933 45.806933 0 0 0-39.594667-22.7328H148.2752a45.806933 45.806933 0 0 0-39.594667 22.7328 45.192533 45.192533 0 0 0 0 45.4656 45.806933 45.806933 0 0 0 39.594667 22.7328z"  horiz-adv-x="1024" />
      
      <glyph glyph-name="fenxiang" unicode="&#59165;" d="M703.977843 873.118838a170.746344 170.746344 0 1 0-36.478792-267.511139L399.411932 450.860825a171.066333 171.066333 0 0 0 0-91.516968l268.087119-154.746874a170.810342 170.810342 0 0 0 269.751065-205.049208 170.746344 170.746344 0 0 0-312.437651 131.067658L356.725346 285.426305a170.810342 170.810342 0 1 0 0 239.352072l268.087119 154.746874A170.810342 170.810342 0 0 0 703.977843 873.118838z m159.290723-105.212515a85.373172 85.373172 0 1 1-148.475081-84.413204A85.373172 85.373172 0 0 1 863.332564 767.970321zM152.50811 382.639085a85.43717 85.43717 0 0 1 125.051858-51.454295 85.373172 85.373172 0 1 1-125.051858 51.390297zM832.037601 158.774501a85.373172 85.373172 0 1 1-86.397138-147.259122A85.373172 85.373172 0 0 1 832.037601 158.838498z"  horiz-adv-x="1024" />
      
      <glyph glyph-name="duihao" unicode="&#59166;" d="M1001.325714 544.548571l-551.789714-551.789714c-25.453714-25.6-64.219429-29.330286-93.769143-12.068571a67.291429 67.291429 0 0 0-15.286857 12.068571L22.674286 310.564571a76.946286 76.946286 0 0 0 0 109.056 76.946286 76.946286 0 0 0 108.982857 0l263.094857-262.948571 497.298286 497.225143a76.946286 76.946286 0 0 0 108.982857 0c30.573714-30.208 30.573714-79.140571 0.365714-109.348572z"  horiz-adv-x="1024" />
      
      <glyph glyph-name="fanyi" unicode="&#59167;" d="M93.320533 462.779733H0l138.513067-140.288 138.581333 140.288h-88.064C212.309333 652.765867 372.394667 799.744 566.340267 799.744c144.9984 0 271.086933-82.193067 335.2576-203.298133l83.831466 45.533866C905.216 793.053867 747.7248 896 566.272 896c-246.442667 0-449.1264-189.986133-472.951467-433.220267z m416.290134 168.482134h113.390933l154.2144-416.3584-89.019733-33.792-50.7904 137.216H495.274667l-50.7904-137.216-89.019734 33.792 154.146134 416.3584z m21.2992-216.610134h70.792533l-35.362133 95.573334-35.4304-95.573334z m463.189333 92.16l138.581333-140.356266h-93.3888c-23.825067-243.234133-226.5088-433.220267-472.951466-433.220267-181.4528 0-339.012267 102.946133-419.157334 254.020267l83.831467 45.533866c64.170667-121.105067 190.327467-203.298133 335.325867-203.298133 193.877333 0 353.8944 147.0464 377.309866 336.964267h-88.064l138.581334 140.288z"  horiz-adv-x="1160" />
      
      <glyph glyph-name="lajixiang" unicode="&#59169;" d="M519.509333 896a192.9216 192.9216 0 0 1-192.785066-186.709333H83.285333a49.152 49.152 0 0 1 0-98.304h54.272v-550.0928c0-103.287467 69.973333-187.665067 156.535467-187.665067h440.866133c86.4256 0 156.535467 83.968 156.535467 187.733333V610.645333h49.152a49.152 49.152 0 0 1 0 98.304H711.953067A192.375467 192.375467 0 0 1 519.441067 896zM418.747733 709.290667c3.618133 53.248 47.104 94.6176 100.829867 94.6176 53.725867 0 97.143467-41.506133 100.283733-94.6176H418.816z m-124.928-744.106667c-30.583467 0-64.375467 39.3216-64.375466 95.709867V610.645333h569.7536v-550.229333c0-56.251733-33.792-95.709867-64.443734-95.709867H293.956267v0.477867zM359.970133 83.3536c22.459733 0 40.96 22.459733 40.96 50.653867V422.912c0 28.194133-18.363733 50.653867-40.96 50.653867-22.459733 0-40.96-22.528-40.96-50.653867v-288.9728c0-27.989333 18.0224-50.653867 40.96-50.653867z m148.343467 0c22.459733 0 40.96 22.459733 40.96 50.653867V422.912c0 28.194133-18.363733 50.653867-40.96 50.653867-22.459733 0-40.96-22.528-40.96-50.653867v-288.9728c0-27.989333 18.500267-50.653867 40.96-50.653867z m156.0576 0c22.459733 0 40.96 22.459733 40.96 50.653867V422.912c0 28.194133-18.363733 50.653867-40.96 50.653867-22.528 0-40.96-22.528-40.96-50.653867v-288.9728c0-27.989333 17.8176-50.653867 40.96-50.653867z"  horiz-adv-x="1024" />
      
      <glyph glyph-name="shangchuan" unicode="&#59170;" d="M972.800987 588.796416A380.77981 380.77981 0 0 1 597.287436 895.99488a380.77981 380.77981 0 0 1-375.440408-307.198464C93.847668 554.638873 0.005851 435.197184 0.005851 298.640153a296.81223 296.81223 0 0 1 298.640793-298.640793h42.715215v85.357288h-42.715215a211.235515 211.235515 0 0 0-213.283505 213.283505A211.235515 211.235515 0 0 0 298.646644 511.9968a296.81223 296.81223 0 0 0 298.713935 298.640793A296.81223 296.81223 0 0 0 896.001371 511.9968a211.235515 211.235515 0 0 0 213.356648-213.356647 211.235515 211.235515 0 0 0-213.356648-213.283505h-42.642072v-85.357288h42.642072a296.81223 296.81223 0 0 1 298.640793 298.640793c0 136.557032-93.841817 255.99872-221.841177 290.156263zM631.44498 413.693292c-17.042201 12.799936-34.084401 17.042201-51.199744 8.557671-4.242265 0-8.484529-4.315407-12.799936-8.557671l-127.99936-123.683953a41.252365 41.252365 0 0 1 0-59.757416 46.37234 46.37234 0 0 1 63.99968 0l51.199744 46.95748v-362.56733a42.715215 42.715215 0 0 1 85.357287 0V277.209403l51.199744-46.884337a46.37234 46.37234 0 0 1 63.99968 0 41.179223 41.179223 0 0 1 0 59.684273L631.44498 413.693292z"  horiz-adv-x="1243" />
      
      <glyph glyph-name="quanqiu" unicode="&#59172;" d="M512 896C229.156571 896 0 666.843429 0 384s229.156571-512 512-512 512 229.156571 512 512-229.156571 512-512 512z m441.270857-477.842286h-135.241143c-5.851429 147.748571-49.005714 278.381714-114.249143 365.568a443.172571 443.172571 0 0 0 249.490286-365.568z m-204.068571 0H546.157714v404.48c109.714286-29.184 194.486857-196.827429 203.044572-404.48z m-271.36 404.48v-404.48H274.797714c8.557714 207.652571 93.330286 375.296 203.044572 404.48z m-157.549715-38.912c-65.316571-87.186286-108.397714-217.819429-114.249142-365.568H70.729143a443.099429 443.099429 0 0 0 249.563428 365.568zM70.729143 349.842286h135.241143c5.851429-147.748571 49.005714-278.381714 114.249143-365.568A443.172571 443.172571 0 0 0 70.729143 349.842286z m204.068571 0h203.044572v-404.48c-109.714286 29.184-194.486857 196.827429-203.044572 404.48z m271.36-404.48v404.48h203.044572c-8.557714-207.652571-93.330286-375.296-203.044572-404.48z m157.549715 38.912c65.316571 87.186286 108.397714 217.819429 114.249142 365.568h135.314286a442.88 442.88 0 0 0-249.563428-365.568z"  horiz-adv-x="1024" />
      
      <glyph glyph-name="xiazai" unicode="&#59174;" d="M799.670857 432.786286l-251.392-288.256c-19.236571-22.016-53.321143-22.016-72.557714 0l-251.392 288.182857a40.009143 40.009143 0 0 0 30.134857 66.340571h174.372571V843.410286c0 28.964571 23.405714 52.589714 52.589715 52.589714h61.147428c29.037714 0 52.662857-23.405714 52.662857-52.589714v-344.356572h174.299429c34.377143 0.146286 52.736-40.374857 30.134857-66.267428zM0 0m36.571429 0l950.857142 0q36.571429 0 36.571429-36.571429l0-54.857142q0-36.571429-36.571429-36.571429l-950.857142 0q-36.571429 0-36.571429 36.571429l0 54.857142q0 36.571429 36.571429 36.571429Z"  horiz-adv-x="1024" />
      
      <glyph glyph-name="tuichu" unicode="&#59175;" d="M593.92 21.162667v113.322666a48.674133 48.674133 0 0 0 97.416533 0v-113.322666c0-53.794133-41.915733-98.781867-95.368533-98.781867H129.501867C75.9808-77.6192 34.133333-32.631467 34.133333 21.162667V797.2864C34.133333 850.944 75.9808 896 129.501867 896H595.968c53.4528 0 95.368533-44.987733 95.368533-98.7136v-230.536533a48.674133 48.674133 0 1 0-97.416533 0V797.2864c0 1.160533 0.136533 1.365333 1.092267 1.365333H130.389333c1.024 0 1.092267-0.2048 1.092267-1.365333v-776.192c0-1.160533 0-1.365333-1.092267-1.365333h464.622934c-0.955733 0-1.092267 0.2048-1.092267 1.365333zM447.8976 409.258667h389.461333c32.426667 0 48.674133-16.315733 48.674134-48.7424s-16.247467-48.674133-48.674134-48.674134H447.829333c-32.426667 0-48.674133 16.247467-48.674133 48.674134s16.247467 48.674133 48.674133 48.674133zM852.1728 515.208533l120.490667-120.490666c22.9376-22.9376 22.9376-45.8752 0-68.881067-22.9376-22.9376-45.8752-22.9376-68.881067 0l-120.4224 120.490667c-22.9376 22.9376-22.9376 45.8752 0 68.881066 22.9376 22.9376 45.8752 22.9376 68.8128 0zM783.36 274.2272l120.4224 120.490667c23.005867 22.9376 45.943467 22.9376 68.881067 0 22.9376-22.9376 22.9376-45.943467 0-68.881067l-120.490667-120.490667c-22.9376-22.9376-45.8752-22.9376-68.8128 0-22.9376 23.005867-22.9376 45.943467 0 68.881067z"  horiz-adv-x="1024" />
      
      <glyph glyph-name="yincang" unicode="&#59177;" d="M1130.32332 395.35946l-0.113774 0.227548-0.17066 0.056887c-47.386786 101.941321-104.330571 184.199775-170.490033 247.00291l-66.159463-67.410974c57.057559-53.35991 106.321612-124.411646 148.929899-213.667188-108.767749-228.85599-262.817468-337.339304-473.412764-337.339304-66.955879 0-128.279955 10.922284-184.199775 33.165061l-71.393057-72.530795c76.28533-37.431579 161.388129-56.318029 255.592832-56.318029 250.757446 0 437.574018 133.399775 561.303021 398.720267 10.068981 21.560134 10.068981 46.533482 0.113774 68.150504zM1046.756467 836.57424l-55.294065 56.318029a10.353415 10.353415 0 0 1-14.790593 0l-152.286226-154.903023c-76.228443 37.545353-161.160582 56.431803-255.535945 56.431803-250.757446 0-437.574018-133.456662-561.303021-398.777154V395.35946a81.348264 81.348264 0 0 1 0-68.434938c47.50056-101.827547 104.330571-184.142888 170.490033-247.059797L46.74169-53.478164a10.694737 10.694737 0 0 1 0-15.075028l55.294065-56.318029a10.353415 10.353415 0 0 1 14.790593 0L1046.756467 821.72676a10.694737 10.694737 0 0 1 0 14.84748v-0.056887zM421.341912 327.664052a150.522732 150.522732 0 0 0 38.967525 138.974691 144.492721 144.492721 0 0 0 136.528555 39.707055L421.341912 327.664052h0.056887z m240.745352 245.011869a226.864949 226.864949 0 0 1-260.655766-46.078387 236.990816 236.990816 0 0 1-45.281971-265.320492l-111.725867-113.660022c-57.057559 53.473684-106.321612 124.411646-148.929899 213.610301C204.318397 590.140198 358.48189 698.623513 568.906525 698.623513c66.955879 0 128.279955-10.922284 184.199775-33.221949l-91.019036-92.725643zM563.786704 212.752518c-8.362374 0-16.610974 0.682643-24.57514 2.104815l-66.671444-67.809182c86.468085-38.114222 187.04412-18.658902 253.715565 49.15028a236.763269 236.763269 0 0 1 48.296976 258.266516l-66.614558-67.922956a150.750279 150.750279 0 0 0-32.482418-120.941545 145.289137 145.289137 0 0 0-111.725868-52.904815h0.056887z"  horiz-adv-x="1137" />
      
      <glyph glyph-name="yincangzhanshi" unicode="&#59178;" d="M575.203556 782.222222C313.742222 782.222222 88.917333 617.585778 0 384c88.917333-233.585778 313.742222-398.222222 575.203556-398.222222 261.461333 0 486.4 164.636444 575.203555 398.222222-88.860444 233.585778-313.742222 398.222222-575.146667 398.222222m0-663.665778c-146.432 0-261.518222 116.736-261.518222 265.443556 0 148.707556 115.086222 265.443556 261.461334 265.443556 146.488889 0 261.461333-116.736 261.461333-265.443556 0-148.707556-114.972444-265.443556-261.461333-265.443556m0 424.732445C486.4 543.288889 418.304 474.225778 418.304 384c0-90.225778 68.039111-159.288889 156.899556-159.288889 88.917333 0 156.899556 69.063111 156.899555 159.288889 0 90.225778-67.982222 159.288889-156.899555 159.288889"  horiz-adv-x="1194" />
      
      <glyph glyph-name="zuochexiao" unicode="&#59180;" d="M169.441744 602.352345l203.98741 207.273996a48.714501 48.714501 0 1 1-65.147429 72.304882l-292.140938-292.140938a48.714501 48.714501 0 0 1 0-72.304882l292.140938-292.140938a48.714501 48.714501 0 1 1 65.147429 72.377917L169.368709 504.996377h658.339604c107.5809 0 243.499472-62.883337 243.499472-243.499471 0-180.5431-135.918571-243.426437-243.499472-243.426437H657.317111a48.714501 48.714501 0 1 1 0-97.355968h170.391202c161.407868 0 340.855439 106.412337 340.855439 340.782405C1168.563752 495.940008 989.043146 602.352345 827.708313 602.352345H169.441744z"  horiz-adv-x="1170" />
      
      <glyph glyph-name="youjian" unicode="&#59181;" d="M909.696-115.84H114.304A114.432 114.432 0 0 0 0-1.664V542.336C0 605.376 51.264 656.64 114.304 656.64h795.392c63.04 0 114.304-51.264 114.304-114.304v-543.936c0-63.04-51.264-114.304-114.304-114.304zM114.304 577.088c-19.2 0-34.816-15.616-34.816-34.816v-543.936c0-19.2 15.616-34.816 34.816-34.816h795.392c19.2 0 34.816 15.616 34.816 34.816V542.336c0 19.2-15.616 34.816-34.816 34.816H114.304zM54.592 553.728l53.568 58.752 428.416-391.232-53.568-58.688zM40.192 0.256L360.576 320.64l56.192-56.192-320.384-320.384-56.192 56.192z m443.456 216.128l428.416 391.168 53.632-58.688-428.48-391.232-53.568 58.752zM603.392 259.456l56.192 56.192 320.384-320.384-56.192-56.192-320.384 320.384z m-91.264-20.864l52.8-52.8-52.8-52.736-52.8 52.736 52.8 52.8z m339.2 337.664H165.76a54.72 54.72 0 0 0-54.656 54.656V841.344c0 30.144 24.512 54.656 54.656 54.656h685.632c30.144 0 54.656-24.512 54.656-54.656v-210.432c0-30.08-24.512-54.656-54.656-54.656zM190.528 655.744h635.968V816.512H190.528v-160.768zM271.296 775.616h476.992v-79.488H271.296z"  horiz-adv-x="1024" />
      
      <glyph glyph-name="shezhi" unicode="&#59182;" d="M512.014995 169.313609c-116.072988 0-210.423433 96.398361-210.423433 214.958106 0 118.486604 94.350444 214.958105 210.496573 214.958105S722.657848 502.831459 722.657848 384.198575c0-118.486604-94.350444-214.884965-210.496573-214.884966zM512.014995 502.46576c-63.777975 0-115.634149-53.026412-115.634149-118.120905 0-65.167632 51.929314-118.120905 115.634149-118.120906 63.851115 0 115.707289 52.953273 115.707289 118.120906 0 65.094493-51.929314 118.120905-115.707289 118.120905zM441.361872-127.414881a47.321502 47.321502 0 0 0-42.78683 27.427455l-43.883927 93.033926a416.970452 416.970452 0 0 0-56.025148 28.085714l-94.496724-23.039062a46.809523 46.809523 0 0 0-47.979761 16.822172L67.763368 128.208997a49.223139 49.223139 0 0 0-5.412351 51.563615l44.907886 92.668227a438.692996 438.692996 0 0 0-12.21436 57.268526L18.39395 390.561744a49.003719 49.003719 0 0 0-17.187872 48.93058l31.303868 141.159967a47.906621 47.906621 0 0 0 36.057961 36.569939l98.885117 22.234524a437.376478 437.376478 0 0 0 35.180282 44.395906l-1.609078 99.250817A48.56488 48.56488 0 0 0 227.500865 827.279964L354.764255 891.057938a46.590103 46.590103 0 0 0 50.466516-5.85119l78.99107-64.582513a397.149545 397.149545 0 0 0 59.828421-0.3657l75.187796 62.900296a46.663243 46.663243 0 0 0 50.466517 6.21689l127.921649-62.315177c16.602753-8.337946 27.061755-25.379538 26.842336-44.030207l-0.58512-103.34665c12.433779-14.115997 23.843601-28.963392 34.375744-44.615326l95.081843-20.040327c17.99241-3.876414 32.181547-17.91927 36.56994-36.20424l32.766665-140.721128a49.003719 49.003719 0 0 0-16.529612-49.003719l-79.13735-64.509374c-2.852455-18.43125-6.875149-36.64308-12.06808-54.56235l44.615327-88.060415a49.223139 49.223139 0 0 0-4.534673-51.709894l-86.305057-114.683331a46.663243 46.663243 0 0 0-47.833482-17.84613l-98.811977 22.234523a415.434514 415.434514 0 0 0-55.586308-27.500595l-40.373213-90.254611a47.394642 47.394642 0 0 0-42.64055-28.231993l-141.671946-1.389658h-0.438839z m-134.504238 248.67559c9.215625 0 18.21183-2.706176 26.037797-7.899107 22.380803-14.993675 46.590103-27.061755 71.677081-36.057961 12.06808-4.315253 21.868824-13.165178 27.281175-24.721279l39.056696-82.867483 81.477826 0.731399 36.05796 80.527007a47.760341 47.760341 0 0 0 27.866294 25.745237c25.233258 8.776786 49.296279 20.625446 71.530802 35.326562a46.663243 46.663243 0 0 0 35.838541 6.582589l88.206694-19.747767 49.661978 65.972171-39.861234 78.69851a49.296279 49.296279 0 0 0-2.559896 38.105877c8.191666 23.98988 13.677157 48.857439 16.310193 73.871278a48.71116 48.71116 0 0 0 17.553571 32.693526l70.506844 57.341666-18.870089 80.965846-84.9154 17.91927a47.467782 47.467782 0 0 0-30.718749 21.941964 332.786451 332.786451 0 0 1-46.297544 60.120981 49.003719 49.003719 0 0 0-13.750297 34.375743l0.585119 92.009968-73.505579 35.838541-67.142409-56.098287a46.955803 46.955803 0 0 0-35.98482-10.678423 311.210186 311.210186 0 0 1-78.259671 0.731399 46.882663 46.882663 0 0 0-34.814583 10.312723L369.39223 790.636884l-73.139879-36.56994 1.462798-88.718673a49.003719 49.003719 0 0 0-14.189137-35.399702 335.712046 335.712046 0 0 1-47.467781-59.535862 47.394642 47.394642 0 0 0-29.767931-21.356844l-88.060415-19.747768-17.91927-81.185266 68.385787-54.41607c10.385863-8.264806 16.895312-20.406026 18.13869-33.644344a336.443445 336.443445 0 0 1 16.017633-75.919195 49.296279 49.296279 0 0 0-2.340476-37.155059l-39.861234-82.501784 50.759076-65.021352 84.403421 20.479166c3.583854 0.950818 7.313988 1.462798 10.970982 1.462797z"  horiz-adv-x="1024" />
      
      <glyph glyph-name="yulanlianjie" unicode="&#59184;" d="M534.38464 193.901714l-184.539429-184.539428c-27.794286-28.452571-65.901714-43.812571-106.276571-43.812572-40.228571 0-77.824 15.36-106.203429 43.812572-58.514286 59.026286-58.514286 154.477714 0 212.992L321.831497 406.893714c27.794286 28.452571 65.974857 43.812571 106.276572 43.812572s77.824-15.36 106.203428-43.812572a45.860571 45.860571 0 0 1 65.316572 0 45.860571 45.860571 0 0 1 0 65.316572 241.005714 241.005714 0 0 1-172.032 71.021714c-65.316571 0-126.098286-24.941714-172.032-71.021714L70.951497 287.597714A241.005714 241.005714 0 0 1 0.002926 115.565714c0-65.243429 24.941714-126.025143 71.021714-172.032a244.077714 244.077714 0 0 1 172.032-71.021714c62.464 0 124.928 23.332571 172.032 71.533714L599.774354 128.731429a45.860571 45.860571 0 0 1 0 65.243428 45.860571 45.860571 0 0 1-65.316571 0zM952.834926 824.832a242.980571 242.980571 0 0 1-343.552 0L424.743497 640.292571a45.860571 45.860571 0 0 1 0-65.316571 45.860571 45.860571 0 0 1 65.243429 0l184.612571 184.612571a148.626286 148.626286 0 0 0 106.203429 43.739429c40.374857 0 78.336-15.36 106.276571-43.739429 58.514286-58.514286 58.514286-153.892571 0-212.992L702.466926 361.984c-58.514286-58.514286-153.819429-58.514286-212.992 0a45.860571 45.860571 0 0 1-65.243429 0 45.860571 45.860571 0 0 1 0-65.243429 242.980571 242.980571 0 0 1 172.032-71.094857c62.464 0 124.342857 23.332571 172.032 71.094857l184.539429 184.539429a242.980571 242.980571 0 0 1 0 343.552z"  horiz-adv-x="1024" />
      
      <glyph glyph-name="move" unicode="&#59185;" d="M768-106.422857l237.714286 237.860571a61.44 61.44 0 0 1-86.747429 86.820572L768 67.437714V863.963429A32.036571 32.036571 0 0 1 736.036571 896h-64a32.036571 32.036571 0 0 1-32.036571-31.963429v-960c0-17.700571 14.336-32.036571 32.036571-32.036571h64c11.702857 0 22.381714 7.168 31.963429 21.577143zM255.780571 874.422857L18.066286 636.635429a61.44 61.44 0 0 1 86.820571-86.893715L255.780571 700.708571v-796.598857c0-17.700571 14.336-32.036571 31.963429-32.036571h64a31.963429 31.963429 0 0 1 32.036571 32.036571V864.036571A32.036571 32.036571 0 0 1 351.744 896h-64c-11.702857 0-22.381714-7.168-31.963429-21.577143z"  horiz-adv-x="1024" />
      
      <glyph glyph-name="home" unicode="&#59186;" d="M1004.315063 524.361143L536.493349 887.442286a39.497143 39.497143 0 0 1-49.005715 0L19.519634 524.214857c-20.553143-16.457143-25.746286-48.713143-11.483428-72.338286 13.677714-22.381714 40.594286-28.16 60.489143-12.946285l52.224 40.521143v-555.885715a54.857143 54.857143 0 0 1 12.580571-36.132571 42.130286 42.130286 0 0 1 31.305143-15.433143h694.418286c24.502857 0.438857 44.178286 23.405714 43.885714 51.346286V479.597714l53.613714-41.691428c20.333714-14.409143 47.030857-7.606857 59.977143 15.36 13.531429 23.552 8.045714 55.149714-12.288 71.094857zM209.032777-25.307429V547.766857l303.177143 235.52 303.030857-235.373714v-573.147429l-606.208-0.073143zM652.351634 164.571429H369.654491c-27.721143-0.950857-49.590857-20.333714-49.590857-43.885715 0-23.552 21.942857-42.934857 49.590857-43.885714H652.49792c28.452571 0.073143 51.492571 19.675429 51.565714 43.885714v9.874286h-1.462857c-5.485714 19.894857-26.331429 33.938286-50.249143 34.011429z"  horiz-adv-x="1024" />
      
      <glyph glyph-name="zhuanlu" unicode="&#59187;" d="M498.176 123.172571a271.286857 271.286857 0 0 0-270.482286 270.482286v231.862857A271.286857 271.286857 0 0 0 498.176 896 271.286857 271.286857 0 0 0 768.731429 625.517714v-231.862857a271.286857 271.286857 0 0 0-270.482286-270.482286z m0 695.588572A193.828571 193.828571 0 0 1 305.005714 625.444571v-231.862857A193.828571 193.828571 0 0 1 498.102857 200.484571a193.828571 193.828571 0 0 1 193.243429 193.170286v231.862857A193.828571 193.828571 0 0 1 498.102857 818.688zM498.176 7.314286C285.696 7.314286 111.762286 181.028571 111.762286 393.581714a38.765714 38.765714 0 0 0 38.692571 38.619429 38.765714 38.765714 0 0 0 38.619429-38.619429 310.052571 310.052571 0 0 1 309.101714-309.101714 310.052571 310.052571 0 0 1 309.174857 309.101714 38.765714 38.765714 0 0 0 38.619429 38.619429 38.765714 38.765714 0 0 0 38.619428-38.619429c0-212.553143-173.860571-386.413714-386.413714-386.413714zM498.176-89.380571a38.765714 38.765714 0 0 0-38.619429 38.692571v77.238857a38.765714 38.765714 0 0 0 38.619429 38.692572 38.765714 38.765714 0 0 0 38.692571-38.692572v-77.238857a38.765714 38.765714 0 0 0-38.692571-38.692571zM884.589714-128H111.762286A38.765714 38.765714 0 0 0 73.142857-89.380571a38.765714 38.765714 0 0 0 38.619429 38.692571h772.827428a38.765714 38.765714 0 0 0 38.692572-38.692571 38.765714 38.765714 0 0 0-38.692572-38.619429zM575.488 664.137143H420.937143a38.765714 38.765714 0 0 0-38.692572 38.619428 38.765714 38.765714 0 0 0 38.692572 38.692572h154.550857a38.765714 38.765714 0 0 0 38.619429-38.692572 38.765714 38.765714 0 0 0-38.619429-38.619428z m0-193.170286H420.937143a38.765714 38.765714 0 0 0-38.692572 38.619429 38.765714 38.765714 0 0 0 38.692572 38.619428h154.550857a38.765714 38.765714 0 0 0 38.619429-38.619428 38.765714 38.765714 0 0 0-38.619429-38.619429z m0-193.243428H420.937143a38.765714 38.765714 0 0 0-38.692572 38.619428 38.765714 38.765714 0 0 0 38.692572 38.692572h154.550857a38.765714 38.765714 0 0 0 38.619429-38.692572 38.765714 38.765714 0 0 0-38.619429-38.619428z"  horiz-adv-x="1024" />
      
      <glyph glyph-name="youchexiao" unicode="&#59188;" d="M999.122008 602.352345l-203.98741 207.273996a48.714501 48.714501 0 1 0 65.147429 72.304882l292.140938-292.140938a48.714501 48.714501 0 0 0 0-72.304882l-292.140938-292.140938a48.714501 48.714501 0 1 0-65.147429 72.377917l204.060445 207.273995H340.855439c-107.5809 0-243.499472-62.883337-243.499471-243.499471C97.355968 80.953806 233.274539 18.070469 340.855439 18.070469H511.246642a48.714501 48.714501 0 1 0 0-97.355968H340.855439C179.447571-79.285499 0 27.126838 0 261.496906 0 495.940008 179.520606 602.352345 340.855439 602.352345h658.339604z"  horiz-adv-x="1170" />
      
    </font>
</defs>
</svg>
