<?xml version="1.0" encoding="UTF-8"?>
<svg width="19px" height="11px" viewBox="0 0 19 11" version="1.1" xmlns="http://www.w3.org/2000/svg" xmlns:xlink="http://www.w3.org/1999/xlink">
    <title>路径</title>
    <g id="紫色" stroke="none" stroke-width="1" fill="none" fill-rule="evenodd">
        <g id="网站移动页" transform="translate(-183.000000, -218.000000)" fill="#64748B" fill-rule="nonzero">
            <path d="M192.93959,228.83747 L192.93959,228.83747 C193.019299,228.791468 193.105013,228.757762 193.175479,228.68727 C193.187828,228.671893 193.196888,228.659725 193.209211,228.647429 C193.224588,228.629074 193.249052,228.622939 193.2643,228.607562 L201.533714,220.028816 C201.754251,219.802117 201.864585,219.507929 201.864585,219.213793 C201.864585,218.907386 201.742058,218.597924 201.503089,218.368145 C201.03434,217.917751 200.289706,217.930021 199.839415,218.39877 L192.381918,226.138056 L185.031828,218.368145 C184.584488,217.896342 183.839958,217.874803 183.368154,218.322143 C182.896325,218.769508 182.874812,219.514013 183.322152,219.985816 L191.511858,228.64427 C191.870247,229.024198 192.421785,229.094691 192.869124,228.880185 C192.893588,228.871124 192.915127,228.849586 192.93959,228.837393 L192.93959,228.837393 L192.93959,228.83747 Z" id="路径"></path>
        </g>
    </g>
</svg>