<?xml version="1.0" encoding="UTF-8"?>
<svg width="28px" height="28px" viewBox="0 0 28 28" version="1.1" xmlns="http://www.w3.org/2000/svg" xmlns:xlink="http://www.w3.org/1999/xlink">
    <title>删除</title>
    <g id="紫色" stroke="none" stroke-width="1" fill="none" fill-rule="evenodd">
        <g id="网站移动页" transform="translate(-687.000000, -117.000000)" fill="#64748B">
            <g id="编组" transform="translate(0.000000, 88.000000)">
                <g id="删除" transform="translate(687.000000, 29.000000)">
                    <rect id="矩形" opacity="0" x="0" y="0" width="28" height="28"></rect>
                    <path d="M26.8051948,26.8051948 C25.974026,27.6363636 24.5194805,27.6363636 23.6883117,26.8051948 L13.7142857,16.8311688 L3.74025974,26.8051948 C2.90909091,27.6363636 1.45454545,27.6363636 0.623376623,26.8051948 C-0.207792208,25.974026 -0.207792208,24.5194805 0.623376623,23.6883117 L10.5974026,13.7142857 L0.623376623,3.74025974 C-0.207792208,2.90909091 -0.207792208,1.45454545 0.623376623,0.623376623 C1.45454545,-0.207792208 2.90909091,-0.207792208 3.74025974,0.623376623 L13.7142857,10.5974026 L23.6883117,0.623376623 C24.5194805,-0.207792208 25.974026,-0.207792208 26.8051948,0.623376623 C27.6363636,1.45454545 27.6363636,2.90909091 26.8051948,3.74025974 L16.8311688,13.7142857 L26.8051948,23.6883117 C27.8441558,24.5194805 27.8441558,25.974026 26.8051948,26.8051948" fill-rule="nonzero"></path>
                </g>
            </g>
        </g>
    </g>
</svg>