<?xml version="1.0" encoding="UTF-8"?>
<svg width="53px" height="53px" viewBox="0 0 53 53" version="1.1" xmlns="http://www.w3.org/2000/svg" xmlns:xlink="http://www.w3.org/1999/xlink">
    <title>默认头像</title>
    <g id="页面-1" stroke="none" stroke-width="1" fill="none" fill-rule="evenodd">
        <g id="blog" transform="translate(-971.000000, -641.000000)" fill-rule="nonzero">
            <g id="编组-3" transform="translate(84.000000, 641.000000)">
                <g id="默认头像" transform="translate(887.000000, 0.000000)">
                    <path d="M0,26.5 C0,41.1355459 11.8644541,53 26.5,53 C41.1355459,53 53,41.1355459 53,26.5 C53,11.8644541 41.1355459,0 26.5,0 C11.8644541,0 0,11.8644541 0,26.5 Z" id="路径" fill="#F9FAFC"></path>
                    <path d="M44.0627451,44.8192941 C44.0109825,44.2111653 43.9044516,43.6089476 43.7444482,43.0199664 C43.5142749,42.2538878 43.0507012,41.5787685 42.418409,41.0888067 C41.7643987,40.5955848 41.044882,40.1958533 40.2805938,39.9011317 C39.4704537,39.5782533 38.6443374,39.2970011 37.805479,39.0584762 C37.0047409,38.8361785 36.2187377,38.5638641 35.4521009,38.2431373 C34.7587971,37.9786042 34.1181407,37.5927224 33.5601345,37.103563 C33.1478514,36.7229657 32.8118819,36.2672806 32.5702073,35.7608964 C32.3657479,35.3179046 32.2401484,34.8426362 32.1990588,34.3564706 C32.1752939,33.8918119 32.2049824,33.4259612 32.2875406,32.9680784 C32.3390033,32.3693329 32.5805833,31.8027331 32.976986,31.3510588 C33.4168217,30.9551672 33.8645752,30.5677871 34.3202465,30.1889188 C34.582595,29.9312492 34.7980175,29.6298184 34.9568403,29.2981625 C35.1349916,28.9175126 35.2923586,28.5315182 35.4521009,28.1360224 C35.6017479,27.6526387 35.7430813,27.1668796 35.8761009,26.6787451 C36.1824182,26.5774756 36.4609549,26.4062874 36.6896583,26.1787339 C36.9518684,25.920946 37.1672726,25.6195409 37.3262521,25.2879776 C37.5296481,24.8022102 37.6549126,24.2873229 37.6974006,23.762409 C37.7500928,23.3533296 37.7380689,22.9385058 37.6617703,22.5331653 C37.6076058,22.2498606 37.5184406,21.974386 37.3963249,21.7130756 C37.2837098,21.4825107 37.1214759,21.2797183 36.9212549,21.1192381 C36.9248327,19.8867022 36.8480649,18.6552437 36.6914398,17.4326947 C36.5320803,16.3004227 36.2897359,15.1813911 35.9663642,14.0846387 C35.6166913,12.9238117 35.0595808,11.8359473 34.322028,10.8737591 C33.9447768,10.3925799 33.505479,9.96346587 33.0155854,9.59760225 C32.4157548,9.15007115 31.7697402,8.76803658 31.0885827,8.45802803 C30.3451634,8.11566236 29.5692955,7.84868423 28.7726162,7.66109804 C27.9622672,7.464348 27.1313934,7.36467504 26.2975014,7.36417925 L26.2975014,7.36358543 C25.6107527,7.36519114 24.9251032,7.41859002 24.2463865,7.52332774 C23.5148433,7.63559295 22.8007502,7.84135874 22.1216358,8.13557422 C21.3799156,8.46037967 20.6844344,8.88190158 20.0532997,9.38916526 C19.3296165,9.97425477 18.7076036,10.6749222 18.2124034,11.462846 C17.5913719,12.3807564 17.1311074,13.3976759 16.8513277,14.4700392 C16.565844,15.5004016 16.3589901,16.5509494 16.232549,17.6126275 C16.0849003,18.7604143 16.0253425,19.9178207 16.0543977,21.0747003 C15.8092756,21.3560889 15.6184025,21.6804524 15.4914398,22.0313725 C15.36878,22.3845697 15.2915549,22.7519375 15.2616246,23.1246275 C15.2198221,23.6014675 15.2864095,24.0815871 15.4564034,24.5290532 C15.5581095,24.9513206 15.7314468,25.3530293 15.9688851,25.7167283 C16.1314947,25.9508914 16.3214818,26.1648013 16.5348123,26.353916 C16.714598,26.4952131 16.9180906,26.603394 17.1357759,26.6734006 C17.2691914,27.161535 17.4105247,27.6472941 17.5597759,28.1306779 C17.7181326,28.5265695 17.8764893,28.9139496 18.034846,29.2928179 C18.1759783,29.6256435 18.3800326,29.9280955 18.6358095,30.1835742 C19.0997946,30.5838207 19.5475481,31.0016844 19.97907,31.4371653 C20.4037446,31.8889335 20.6489032,32.4801859 20.6685154,33.0999103 C20.7017703,33.539746 20.7193875,33.9803735 20.7213669,34.4217927 C20.7250847,34.8135222 20.6468026,35.2016962 20.4915518,35.5613669 C20.3270829,35.9632954 20.0937718,36.3334582 19.8021064,36.6552157 C19.3990082,37.0987149 18.9347003,37.4824388 18.4232157,37.7947899 C17.6026222,38.3327245 16.7001206,38.7338363 15.7509468,38.982465 C14.7671559,39.241774 13.7964295,39.5495798 12.8387675,39.9058824 C11.945376,40.2300457 11.1142204,40.7050778 10.3814678,41.3103081 C9.63915761,41.9707216 9.18261546,42.893814 9.10828012,43.8845938 C8.96929788,44.6697455 8.88280179,45.4632876 8.84936694,46.259944 C13.68627,50.5947444 19.951472,52.9942239 26.4465546,52.9994062 L26.6104538,52.9994062 C26.7226891,52.9994062 26.8349243,52.9994062 26.9465658,52.9952493 L27.2862409,52.9881232 C33.5275282,52.8110997 39.5039593,50.4271762 44.1536023,46.259944 C44.1375686,45.7777479 44.1078768,45.2961457 44.0627451,44.8192941 Z" id="路径" fill="#CDD6E9" opacity="0.5"></path>
                </g>
            </g>
        </g>
    </g>
</svg>